<?xml version="1.0" encoding="UTF-8"?>
<svg version="1.1" xmlns="http://www.w3.org/2000/svg" width="1024" height="1024">
<path d="M0 0 C337.92 0 675.84 0 1024 0 C1024 337.92 1024 675.84 1024 1024 C686.08 1024 348.16 1024 0 1024 C0 686.08 0 348.16 0 0 Z " fill="#EFEFEA" transform="translate(0,0)"/>
<path d="M0 0 C1.22807373 -0.01260864 2.45614746 -0.02521729 3.72143555 -0.03820801 C5.0577858 -0.03104814 6.3941308 -0.02284414 7.73046875 -0.01367188 C9.1052274 -0.01636764 10.47998419 -0.02025077 11.85473633 -0.02526855 C14.73309519 -0.0311598 17.61095684 -0.02261364 20.48925781 -0.00390625 C24.17500891 0.01888424 27.85959497 0.00575899 31.54530334 -0.01819611 C34.38326768 -0.03266486 37.22095673 -0.02804341 40.05892944 -0.01768494 C41.41767516 -0.01502057 42.77644603 -0.01827728 44.13516235 -0.02760315 C46.03541574 -0.03778428 47.93575699 -0.01950917 49.8359375 0 C51.45665161 0.00477356 51.45665161 0.00477356 53.11010742 0.00964355 C56.61342629 0.64338453 57.73983041 1.7533962 59.91796875 4.51757812 C61.05732946 6.99996206 62.03507438 9.38586079 62.94921875 11.94726562 C63.35763 13.04775238 63.35763 13.04775238 63.77429199 14.17047119 C64.35941215 15.74996435 64.93970153 17.33125386 65.515625 18.91412354 C67.05393737 23.13938399 68.62938762 27.35082526 70.19921875 31.56445312 C70.5149585 32.41496246 70.83069824 33.2654718 71.15600586 34.14175415 C73.96361851 41.68916138 76.90657678 49.17416314 79.91796875 56.64257812 C80.6445166 58.44662109 80.6445166 58.44662109 81.38574219 60.28710938 C82.38059146 62.75428323 83.37633792 65.22107861 84.37304688 67.6875 C86.86251016 73.85275554 89.32584546 80.02849065 91.79284668 86.20275879 C93.27111232 89.90182524 94.75087444 93.60029298 96.23046875 97.29882812 C96.8398508 98.82226281 97.44922574 100.34570033 98.05859375 101.86914062 C98.36410156 102.63291016 98.66960937 103.39667969 98.984375 104.18359375 C105.38541667 120.18619792 111.78645833 136.18880208 118.1875 152.19140625 C118.76092384 153.62496208 118.76092384 153.62496208 119.34593201 155.08747864 C120.12251983 157.02895329 120.89910066 158.97043074 121.67567444 160.91191101 C123.61491695 165.76010624 125.55427988 170.60825324 127.49389648 175.45629883 C130.65999739 183.37021779 133.82591238 191.28420084 136.984375 199.20117188 C141.57529989 210.70430302 146.18915024 222.19780864 150.828125 233.68164062 C151.26923615 234.77362259 151.71034729 235.86560455 152.16482544 236.99067688 C154.46083189 242.67338433 156.75834802 248.35547713 159.05761719 254.03686523 C163.05678456 263.92312341 167.04999682 273.81087267 170.9609375 283.73242188 C176.17953851 296.9628297 181.4643247 310.13163133 187.35546875 323.08007812 C188.04588257 324.61462646 188.04588257 324.61462646 188.75024414 326.18017578 C191.83706359 332.81335203 195.53747492 338.66474427 199.91796875 344.51757812 C200.42054199 345.19546387 200.92311523 345.87334961 201.44091797 346.57177734 C208.93720863 356.42964083 220.02130244 359.13406774 231.66015625 361.05273438 C233.91796875 361.51757812 233.91796875 361.51757812 234.91796875 362.51757812 C235.01657006 363.92106548 235.04875812 365.3293829 235.05078125 366.73632812 C235.05207031 367.58582031 235.05335938 368.4353125 235.0546875 369.31054688 C235.05082031 370.20386719 235.04695313 371.0971875 235.04296875 372.01757812 C235.04683594 372.91089844 235.05070312 373.80421875 235.0546875 374.72460938 C235.05275391 375.99884766 235.05275391 375.99884766 235.05078125 377.29882812 C235.04965332 378.08322266 235.04852539 378.86761719 235.04736328 379.67578125 C234.91796875 381.51757812 234.91796875 381.51757812 233.91796875 382.51757812 C231.88496716 382.61874388 229.84839648 382.64835432 227.81288147 382.65129089 C227.1682369 382.65355645 226.52359234 382.65582201 225.85941309 382.65815622 C223.68368268 382.66452292 221.50801413 382.66366516 219.33227539 382.6628418 C217.77874165 382.66583163 216.22520865 382.66923374 214.67167664 382.67301941 C210.4403276 382.68188152 206.20899876 382.68419845 201.97764134 382.6848352 C198.45109671 382.68578245 194.92455682 382.68945862 191.39801401 382.69300729 C183.08117683 382.70116024 174.76435048 382.70359076 166.44750977 382.70288086 C157.85480329 382.70227982 149.26215954 382.71283483 140.66946894 382.72862452 C133.30387038 382.74167938 125.93829237 382.74706562 118.57268232 382.74642545 C114.16837229 382.74616986 109.76411797 382.74905458 105.35981941 382.7596035 C101.21895067 382.76925004 97.07819129 382.76938751 92.9373188 382.76208687 C91.41428977 382.76103672 89.89125405 382.76342923 88.36823654 382.76944733 C86.2953736 382.77710992 84.22289375 382.77256109 82.15003967 382.76481628 C80.40703378 382.76563344 80.40703378 382.76563344 78.62881565 382.76646709 C75.91796875 382.51757812 75.91796875 382.51757812 73.91796875 380.51757812 C73.65917969 378.66992187 73.65917969 378.66992187 73.65234375 376.45507812 C73.64976562 375.6584375 73.6471875 374.86179687 73.64453125 374.04101562 C73.65226562 373.20828125 73.66 372.37554688 73.66796875 371.51757812 C73.66023438 370.68484375 73.6525 369.85210938 73.64453125 368.99414062 C73.64839844 367.79917969 73.64839844 367.79917969 73.65234375 366.58007812 C73.65459961 365.84917969 73.65685547 365.11828125 73.65917969 364.36523438 C73.91796875 362.51757812 73.91796875 362.51757812 75.91796875 360.51757812 C78.42243858 360.01141775 80.89499025 359.58785305 83.41796875 359.20507812 C91.59985433 357.80406405 99.29160665 355.86888159 104.98046875 349.39257812 C108.23697738 344.56033952 108.47907374 340.19097298 107.91796875 334.51757812 C106.09347629 325.71241888 103.30159602 317.43455501 99.87109375 309.12695312 C98.91796875 306.51757812 98.91796875 306.51757812 98.91796875 303.51757812 C98.37011719 303.82050781 97.82226562 304.1234375 97.2578125 304.43554688 C82.37622728 312.29979923 66.33253307 315.47227779 49.91796875 318.51757812 C48.80421875 318.72511719 47.69046875 318.93265625 46.54296875 319.14648438 C31.32197563 320.70466794 14.94500071 320.51609138 -0.08203125 317.51757812 C-0.72011719 317.39930664 -1.35820312 317.28103516 -2.015625 317.15917969 C-26.52385534 312.53742608 -48.99184267 300.82877127 -69.32177734 286.70654297 C-72.5153312 284.54945458 -75.79978287 282.53615823 -79.08203125 280.51757812 C-81.72856674 287.46009306 -84.33760702 294.41562634 -86.91455078 301.38427734 C-87.92829606 304.10498143 -88.96823476 306.81363816 -90.015625 309.52148438 C-94.06509688 320.32163114 -97.3747954 333.14009484 -92.45703125 344.26757812 C-87.97056512 351.29532927 -80.66258412 355.34945602 -72.7734375 357.36132812 C-69.21716323 358.12694153 -65.65550692 358.83711012 -62.08203125 359.51757812 C-53.36209998 361.2375094 -53.36209998 361.2375094 -51.08203125 363.51757812 C-50.88346153 366.39099874 -50.80374179 369.14619801 -50.83203125 372.01757812 C-50.82429687 372.80261719 -50.8165625 373.58765625 -50.80859375 374.39648438 C-50.82872338 380.26427025 -50.82872338 380.26427025 -53.08203125 382.51757812 C-55.35279846 382.76926041 -55.35279846 382.76926041 -58.24438477 382.77154541 C-59.88493332 382.78000488 -59.88493332 382.78000488 -61.55862427 382.78863525 C-62.76388763 382.78458679 -63.969151 382.78053833 -65.2109375 382.77636719 C-66.47598114 382.77987183 -67.74102478 382.78337646 -69.04440308 382.7869873 C-72.51955348 382.7961239 -75.99458546 382.79256188 -79.46973801 382.78622913 C-83.10165483 382.78117568 -86.73356131 382.78585876 -90.36547852 382.78900146 C-96.46535061 382.79264303 -102.56517431 382.78783705 -108.66503906 382.77832031 C-115.72351108 382.76743537 -122.78186758 382.77096082 -129.8403368 382.78197312 C-135.89387153 382.7910406 -141.94737143 382.79233393 -148.00091076 382.78709579 C-151.61937034 382.7839731 -155.23777557 382.78357487 -158.85623169 382.79016876 C-162.8885994 382.79700326 -166.92076702 382.78753831 -170.953125 382.77636719 C-172.76102005 382.78243988 -172.76102005 382.78243988 -174.60543823 382.78863525 C-176.24598679 382.78017578 -176.24598679 382.78017578 -177.91967773 382.77154541 C-178.87390121 382.77079136 -179.82812469 382.77003731 -180.81126404 382.76926041 C-183.08203125 382.51757812 -183.08203125 382.51757812 -185.08203125 380.51757812 C-185.30908203 378.63818359 -185.30908203 378.63818359 -185.27734375 376.38476562 C-185.27089844 375.57910156 -185.26445312 374.7734375 -185.2578125 373.94335938 C-185.24105469 373.10160156 -185.22429687 372.25984375 -185.20703125 371.39257812 C-185.19800781 370.54308594 -185.18898438 369.69359375 -185.1796875 368.81835938 C-185.15608772 366.71797929 -185.12021608 364.61774368 -185.08203125 362.51757812 C-181.63676596 361.51198039 -178.21735137 360.54936262 -174.72265625 359.72851562 C-166.01193906 357.58094249 -159.87178449 354.35165415 -153.08203125 348.51757812 C-152.44910156 347.99550781 -151.81617188 347.4734375 -151.1640625 346.93554688 C-132.58436871 330.14154448 -125.47871798 300.94329456 -116.99595642 278.27198792 C-113.3337434 268.49779144 -109.59199479 258.75452736 -105.83203125 249.01757812 C-105.47676361 248.09713715 -105.12149597 247.17669617 -104.75546265 246.22836304 C-99.05065311 231.46313414 -93.19537151 216.76168321 -87.2868042 202.07702637 C-80.70046788 185.69519222 -74.29959458 169.24519763 -67.95703125 152.76757812 C-67.48730896 151.54740997 -67.01758667 150.32724182 -66.53363037 149.07009888 C-64.67421396 144.23934066 -62.81512583 139.4084563 -60.95654297 134.57737732 C-57.00088043 124.29832189 -53.02315008 114.02804831 -49.01953125 103.76757812 C-48.7100354 102.97427094 -48.40053955 102.18096375 -48.08166504 101.36361694 C-41.32902716 84.06792885 -34.47718528 66.81125452 -27.61303711 49.55957031 C-26.77195224 47.44271644 -25.93088757 45.32585455 -25.08984375 43.20898438 C-24.67938309 42.17897308 -24.26892242 41.14896179 -23.84602356 40.08773804 C-21.62959174 34.50484185 -19.46736658 28.90618709 -17.36621094 23.27880859 C-16.6962056 21.49566505 -16.6962056 21.49566505 -16.01266479 19.67649841 C-15.15701475 17.39212412 -14.31029775 15.10437753 -13.47390747 12.81288147 C-13.08790375 11.78464767 -12.70190002 10.75641388 -12.30419922 9.69702148 C-11.97064423 8.79140976 -11.63708923 7.88579803 -11.29342651 6.95274353 C-8.57908204 1.49632649 -6.03681835 0.0177805 0 0 Z " fill="#0A3B61" transform="translate(479.08203125,180.482421875)"/>
<path d="M0 0 C0.79719955 0.00222061 1.59439911 0.00444122 2.41575623 0.00672913 C3.31661453 0.00680466 4.21747284 0.00688019 5.14562988 0.00695801 C6.12478867 0.01211929 7.10394745 0.01728058 8.11277771 0.02259827 C9.11018478 0.02401321 10.10759186 0.02542816 11.13522339 0.02688599 C14.3348027 0.03250337 17.53431315 0.04505881 20.73387146 0.05775452 C22.89728191 0.06276728 25.06069345 0.06733057 27.22410583 0.07142639 C32.53988471 0.08247845 37.85562317 0.09923348 43.17137146 0.12025452 C43.17137146 2.10025452 43.17137146 4.08025452 43.17137146 6.12025452 C42.61707458 6.38580139 42.06277771 6.65134827 41.49168396 6.92494202 C40.76723083 7.27814514 40.04277771 7.63134827 39.29637146 7.99525452 C38.57707458 8.34330139 37.85777771 8.69134827 37.11668396 9.04994202 C35.02002127 10.08582994 35.02002127 10.08582994 33.17137146 12.12025452 C32.04194814 16.17096156 31.97556674 20.20318992 31.85496521 24.38978577 C31.8168573 25.6360675 31.77874939 26.88234924 31.73948669 28.16639709 C31.69638367 29.73929504 31.65328064 31.31219299 31.60887146 32.93275452 C31.46449646 37.94462952 31.32012146 42.95650452 31.17137146 48.12025452 C46.68137146 48.12025452 62.19137146 48.12025452 78.17137146 48.12025452 C78.06824646 42.42775452 77.96512146 36.73525452 77.85887146 30.87025452 C77.83397644 29.07942444 77.80908142 27.28859436 77.78343201 25.4434967 C77.75113518 24.01801445 77.71776048 22.59255602 77.68309021 21.16712952 C77.67684631 20.43188049 77.67060242 19.69663147 77.66416931 18.93910217 C77.54643081 14.74618438 77.21176553 12.12311286 74.17137146 9.12025452 C72.38723725 8.03193135 72.38723725 8.03193135 70.48387146 7.37025452 C69.39074646 6.95775452 68.29762146 6.54525452 67.17137146 6.12025452 C67.12865046 4.45413547 67.13073314 2.78642567 67.17137146 1.12025452 C68.17137146 0.12025452 68.17137146 0.12025452 70 0 C70.79719955 0.00222061 71.59439911 0.00444122 72.41575623 0.00672913 C73.76704369 0.00684242 73.76704369 0.00684242 75.14562988 0.00695801 C76.12478867 0.01211929 77.10394745 0.01728058 78.11277771 0.02259827 C79.11018478 0.02401321 80.10759186 0.02542816 81.13522339 0.02688599 C84.3348027 0.03250337 87.53431315 0.04505881 90.73387146 0.05775452 C92.89728191 0.06276728 95.06069345 0.06733057 97.22410583 0.07142639 C102.53988471 0.08247845 107.85562317 0.09923348 113.17137146 0.12025452 C113.17137146 2.10025452 113.17137146 4.08025452 113.17137146 6.12025452 C112.53328552 6.44638733 111.89519958 6.77252014 111.23777771 7.10853577 C110.41148865 7.54552795 109.58519958 7.98252014 108.73387146 8.43275452 C107.91016052 8.86201233 107.08644958 9.29127014 106.23777771 9.73353577 C103.86489502 11.02046339 103.86489502 11.02046339 103.17137146 14.12025452 C103.06502353 16.73036588 103.01413119 19.31417133 103.01023865 21.92469788 C103.00527374 22.71850357 103.00030884 23.51230927 102.99519348 24.33016968 C102.98058495 26.95682134 102.97377275 29.58341265 102.96824646 32.21009827 C102.96249481 34.03468833 102.95673708 35.85927838 102.95097351 37.68386841 C102.94046786 41.50959047 102.93462205 45.33529154 102.93113708 49.161026 C102.92564716 54.06505475 102.90160671 58.96880658 102.87316513 63.87274837 C102.8545515 67.64138605 102.84933388 71.40995678 102.84780121 75.17863655 C102.84477228 76.98676127 102.83673565 78.79488474 102.82361603 80.6029644 C102.80657879 83.13099717 102.80842969 85.65834989 102.81492615 88.18641663 C102.80571136 88.93408295 102.79649658 89.68174927 102.78700256 90.45207214 C102.81197434 93.55103361 102.99039986 95.78154948 104.46318054 98.53799438 C107.01972718 100.90606799 109.83230667 101.36423985 113.17137146 102.12025452 C113.21391502 104.11980198 113.21217929 106.12067088 113.17137146 108.12025452 C112.17137146 109.12025452 112.17137146 109.12025452 110.34274292 109.24050903 C109.14694359 109.23717812 109.14694359 109.23717812 107.92698669 109.23377991 C106.57569923 109.23366661 106.57569923 109.23366661 105.19711304 109.23355103 C104.21795425 109.22838974 103.23879547 109.22322845 102.22996521 109.21791077 C101.23255814 109.21649582 100.23515106 109.21508087 99.20751953 109.21362305 C96.00794022 109.20800566 92.80842977 109.19545023 89.60887146 109.18275452 C87.44546101 109.17774176 85.28204947 109.17317846 83.11863708 109.16908264 C77.80285821 109.15803059 72.48711975 109.14127555 67.17137146 109.12025452 C67.17137146 107.14025452 67.17137146 105.16025452 67.17137146 103.12025452 C67.79785583 102.9591217 68.42434021 102.79798889 69.06980896 102.63197327 C71.7850794 101.72831071 73.83322689 100.7800359 76.17137146 99.12025452 C79.36500143 91.25845823 78.59566474 81.27920512 78.79637146 72.93275452 C78.92012146 68.37462952 79.04387146 63.81650452 79.17137146 59.12025452 C63.33137146 59.12025452 47.49137146 59.12025452 31.17137146 59.12025452 C31.31574646 64.09087952 31.46012146 69.06150452 31.60887146 74.18275452 C31.65197449 75.73744446 31.69507751 77.2921344 31.73948669 78.89393616 C31.79664856 80.75586609 31.79664856 80.75586609 31.85496521 82.65541077 C31.90995178 84.5485199 31.90995178 84.5485199 31.96604919 86.47987366 C32.2679109 93.69805198 32.2679109 93.69805198 35.17137146 100.12025452 C37.11970081 101.12193982 37.11970081 101.12193982 39.29637146 101.80775452 C40.02082458 102.0591217 40.74527771 102.31048889 41.49168396 102.56947327 C42.04598083 102.75123108 42.60027771 102.93298889 43.17137146 103.12025452 C43.21409246 104.78637357 43.21200978 106.45408337 43.17137146 108.12025452 C42.17137146 109.12025452 42.17137146 109.12025452 40.34274292 109.24050903 C39.14694359 109.23717812 39.14694359 109.23717812 37.92698669 109.23377991 C37.02612839 109.23370438 36.12527008 109.23362885 35.19711304 109.23355103 C34.21795425 109.22838974 33.23879547 109.22322845 32.22996521 109.21791077 C31.23255814 109.21649582 30.23515106 109.21508087 29.20751953 109.21362305 C26.00794022 109.20800566 22.80842977 109.19545023 19.60887146 109.18275452 C17.44546101 109.17774176 15.28204947 109.17317846 13.11863708 109.16908264 C7.80285821 109.15803059 2.48711975 109.14127555 -2.82862854 109.12025452 C-2.82862854 106.81025452 -2.82862854 104.50025452 -2.82862854 102.12025452 C-2.20214417 101.96169983 -1.57565979 101.80314514 -0.93019104 101.63978577 C0.2957074 101.2898053 0.2957074 101.2898053 1.54637146 100.93275452 C2.76453552 100.60210999 2.76453552 100.60210999 4.00730896 100.26478577 C6.33147038 99.29470018 6.33147038 99.29470018 7.29045105 97.01329041 C8.37281942 93.45867809 8.42567174 90.40502201 8.43016052 86.68714905 C8.43366516 85.9563916 8.4371698 85.22563416 8.44078064 84.47273254 C8.44955563 82.06607963 8.44376263 79.65972274 8.43699646 77.25306702 C8.43834462 75.57304325 8.44028641 73.89301987 8.4427948 72.21299744 C8.44574058 68.69425233 8.44146709 65.17560888 8.43211365 61.65687561 C8.42073701 57.1590417 8.42727066 52.66144698 8.43925858 48.1636219 C8.44650695 44.69424152 8.44417529 41.22491725 8.43900299 37.75553513 C8.43767381 36.09783271 8.43928844 34.44012511 8.4439621 32.78242874 C8.44907446 30.45886625 8.44125077 28.13568347 8.43016052 25.81214905 C8.42856934 24.49264252 8.42697815 23.17313599 8.42533875 21.81364441 C8.16048558 17.96194359 7.48276726 14.74838357 6.17137146 11.12025452 C3.86831981 9.22167176 3.86831981 9.22167176 1.17137146 8.12025452 C0.40824646 7.72837952 -0.35487854 7.33650452 -1.14112854 6.93275452 C-1.97644104 6.53056702 -1.97644104 6.53056702 -2.82862854 6.12025452 C-2.87134954 4.45413547 -2.86926686 2.78642567 -2.82862854 1.12025452 C-1.82862854 0.12025452 -1.82862854 0.12025452 0 0 Z " fill="#0C3B60" transform="translate(784.8286285400391,620.8797454833984)"/>
<path d="M0 0 C0.91765137 -0.00315216 1.83530273 -0.00630432 2.78076172 -0.009552 C4.27760498 -0.00651566 4.27760498 -0.00651566 5.8046875 -0.00341797 C6.82191895 -0.00437469 7.83915039 -0.00533142 8.88720703 -0.00631714 C11.04264386 -0.00699908 13.19808272 -0.00514382 15.35351562 -0.00097656 C18.66541121 0.00437148 21.97717117 -0.0009211 25.2890625 -0.00732422 C27.37760447 -0.00666344 29.46614635 -0.00538228 31.5546875 -0.00341797 C32.55258301 -0.0054422 33.55047852 -0.00746643 34.57861328 -0.009552 C35.49626465 -0.00639984 36.41391602 -0.00324768 37.359375 0 C38.17132324 0.00079559 38.98327148 0.00159119 39.81982422 0.00241089 C41.6796875 0.12939453 41.6796875 0.12939453 42.6796875 1.12939453 C42.72032582 2.79556568 42.7224085 4.46327548 42.6796875 6.12939453 C42.06480469 6.34853516 41.44992187 6.56767578 40.81640625 6.79345703 C40.00816406 7.11056641 39.19992187 7.42767578 38.3671875 7.75439453 C37.16642578 8.20685547 37.16642578 8.20685547 35.94140625 8.66845703 C32.79442548 10.70122181 32.0786137 12.66481986 30.6796875 16.12939453 C30.43255105 18.88846481 30.32702104 21.40487378 30.38671875 24.15283203 C30.39308601 25.27209579 30.39308601 25.27209579 30.39958191 26.41397095 C30.41626368 28.77782551 30.45389411 31.14080129 30.4921875 33.50439453 C30.50724801 35.11505923 30.52093402 36.7257374 30.53320312 38.33642578 C30.56613246 42.26774968 30.61783988 46.19842354 30.6796875 50.12939453 C34.81924845 49.61654843 36.73951073 48.56130353 39.640625 45.59423828 C40.35992188 44.8665625 41.07921875 44.13888672 41.8203125 43.38916016 C42.55765625 42.6228125 43.295 41.85646484 44.0546875 41.06689453 C44.78429687 40.32761719 45.51390625 39.58833984 46.265625 38.82666016 C50.37333271 34.63459774 54.31058813 30.33023087 58.14355469 25.88647461 C60.70750366 22.95374404 63.45031453 20.18518705 66.17578125 17.40283203 C68.12737675 14.45262793 68.14500459 12.59768583 67.6796875 9.12939453 C66.03147506 8.09926176 64.36465048 7.09824825 62.6796875 6.12939453 C62.6796875 4.47939453 62.6796875 2.82939453 62.6796875 1.12939453 C75.2196875 1.12939453 87.7596875 1.12939453 100.6796875 1.12939453 C100.3496875 2.77939453 100.0196875 4.42939453 99.6796875 6.12939453 C97.74609375 7.39501953 97.74609375 7.39501953 95.2421875 8.37939453 C83.24633005 13.92895905 74.38221272 25.43300776 65.60009766 35.03613281 C64.28301362 36.47176446 62.94828626 37.89134949 61.59912109 39.296875 C60.9489502 39.99312988 60.2987793 40.68938477 59.62890625 41.40673828 C59.03811279 42.02669678 58.44731934 42.64665527 57.83862305 43.28540039 C56.46893722 45.05412785 56.46893722 45.05412785 56.8515625 47.15185547 C57.70492536 49.18966182 58.6445586 50.73557184 59.98046875 52.49267578 C60.45701904 53.12463867 60.93356934 53.75660156 61.42456055 54.40771484 C62.20053589 55.41463379 62.20053589 55.41463379 62.9921875 56.44189453 C63.52690674 57.14540039 64.06162598 57.84890625 64.61254883 58.57373047 C68.7808532 64.03064159 73.05729284 69.39863011 77.37036133 74.74145508 C81.27912006 79.59203669 85.03790378 84.53425518 88.7421875 89.54345703 C89.3815625 90.39681641 90.0209375 91.25017578 90.6796875 92.12939453 C91.30359375 92.99693359 91.9275 93.86447266 92.5703125 94.75830078 C94.9700702 97.45580619 97.22647036 98.80215242 100.4296875 100.44189453 C101.41453125 100.95365234 102.399375 101.46541016 103.4140625 101.99267578 C104.16171875 102.36779297 104.909375 102.74291016 105.6796875 103.12939453 C105.7224085 104.79551358 105.72032582 106.46322338 105.6796875 108.12939453 C102.16434019 111.64474184 90.04180284 110.34711412 85.03198242 110.40649414 C78.63184145 110.32586642 72.86893002 110.24087787 67.8984375 105.71533203 C64.7888226 102.00679735 62.41028861 97.90850666 60.11865234 93.65722656 C57.75402519 89.50328195 54.77189485 85.86385926 51.8046875 82.12939453 C50.7369702 80.73555905 49.67176558 79.33979432 48.609375 77.94189453 C42.95566855 70.26385403 42.95566855 70.26385403 36.6796875 63.12939453 C35.01351635 63.08875621 33.34580655 63.08667353 31.6796875 63.12939453 C29.54229427 67.40418099 30.45270921 73.07676672 30.43945312 77.82299805 C30.42977189 79.92358364 30.39876066 82.02318028 30.3671875 84.12353516 C30.36065464 85.46532624 30.35540528 86.8071243 30.3515625 88.14892578 C30.3422168 89.36684814 30.33287109 90.58477051 30.32324219 91.83959961 C30.71097526 95.41816339 31.51795599 97.28160062 33.6796875 100.12939453 C35.90825996 101.3511117 35.90825996 101.3511117 38.3671875 101.94189453 C39.17542969 102.17521484 39.98367188 102.40853516 40.81640625 102.64892578 C41.73873047 102.88675781 41.73873047 102.88675781 42.6796875 103.12939453 C42.3496875 105.10939453 42.0196875 107.08939453 41.6796875 109.12939453 C35.14689964 109.15466455 28.61412429 109.17222745 22.08129883 109.18432617 C19.85701018 109.1893677 17.63272487 109.19620076 15.40844727 109.20483398 C12.21890441 109.21690752 9.02940521 109.22262449 5.83984375 109.22705078 C4.33829491 109.23479271 4.33829491 109.23479271 2.80641174 109.24269104 C1.88553268 109.24276657 0.96465363 109.2428421 0.01586914 109.24291992 C-0.79909531 109.24514053 -1.61405975 109.24736115 -2.45372009 109.24964905 C-4.3203125 109.12939453 -4.3203125 109.12939453 -5.3203125 108.12939453 C-5.36095082 106.46322338 -5.3630335 104.79551358 -5.3203125 103.12939453 C-4.38058594 102.78328125 -4.38058594 102.78328125 -3.421875 102.43017578 C-2.60460937 102.10404297 -1.78734375 101.77791016 -0.9453125 101.44189453 C-0.13320313 101.12865234 0.67890625 100.81541016 1.515625 100.49267578 C4.38982793 98.6820317 4.68944742 97.36496438 5.6796875 94.12939453 C5.98195931 90.60809903 5.98195931 90.60809903 5.93847656 86.7121582 C5.9419812 85.98300705 5.94548584 85.2538559 5.94909668 84.50260925 C5.95787268 82.10076268 5.95207769 79.69921268 5.9453125 77.29736328 C5.94666078 75.61973515 5.94860267 73.94210739 5.95111084 72.26448059 C5.95405688 68.74993161 5.94978283 65.2354844 5.94042969 61.72094727 C5.92906186 57.23217968 5.93558093 52.743652 5.94757462 48.2548933 C5.95482985 44.78976156 5.95248807 41.32468589 5.94731903 37.85955238 C5.94599128 36.20546757 5.94759939 34.55137755 5.95227814 32.89729881 C5.95740087 30.57633528 5.9495522 28.25575008 5.93847656 25.93481445 C5.93688538 24.61752853 5.93529419 23.30024261 5.93365479 21.94303894 C5.65056299 17.6920527 4.93852964 14.19663556 3.6796875 10.12939453 C1.60093981 8.35692386 1.60093981 8.35692386 -0.9453125 7.62939453 C-1.76257813 7.33033203 -2.57984375 7.03126953 -3.421875 6.72314453 C-4.36160156 6.42923828 -4.36160156 6.42923828 -5.3203125 6.12939453 C-5.3630335 4.46327548 -5.36095082 2.79556568 -5.3203125 1.12939453 C-3.74730922 -0.44360875 -2.18347205 0.00213949 0 0 Z " fill="#0B395F" transform="translate(665.3203125,620.87060546875)"/>
<path d="M0 0 C2.2493396 2.2493396 2.89357165 3.90742241 4.0402832 6.85986328 C4.63848122 8.38810478 4.63848122 8.38810478 5.24876404 9.94721985 C5.67842972 11.06034042 6.1080954 12.173461 6.55078125 13.3203125 C7.00135391 14.47464279 7.45192657 15.62897308 7.91615295 16.81828308 C8.88346942 19.29759222 9.84896374 21.77752266 10.8114624 24.25869751 C13.06049009 30.05524253 15.32614113 35.84529342 17.59091949 41.63569832 C18.33928088 43.54934192 19.08709331 45.46319948 19.8348999 47.37705994 C23.61617967 57.04901543 27.45292362 66.69679023 31.375 76.3125 C31.75736816 77.25107849 31.75736816 77.25107849 32.14746094 78.20861816 C35.6267547 86.73975194 39.16275328 95.24770154 42.81982422 103.7043457 C45 108.78882279 45 108.78882279 45 111 C44.18547363 111.01458252 43.37094727 111.02916504 42.53173828 111.04418945 C27.16316245 111.35095394 12.06491118 111.65559727 -3 115 C-4.93166016 115.39832031 -4.93166016 115.39832031 -6.90234375 115.8046875 C-22.57252893 119.23584346 -37.94029085 125.31519003 -52 133 C-51.38228882 127.81692961 -49.75110158 123.51753009 -47.73828125 118.7578125 C-47.39995773 117.94193161 -47.06163422 117.12605072 -46.71305847 116.28544617 C-45.97406924 114.50346191 -45.23253345 112.72253209 -44.48876953 110.9425354 C-42.44098562 106.03744901 -40.41655633 101.12278244 -38.39453125 96.20703125 C-37.9626651 95.15724594 -37.53079895 94.10746063 -37.08584595 93.02586365 C-30.80856299 77.7155589 -24.81448727 62.29248485 -18.7902832 46.88134766 C-14.36302616 35.55686069 -9.91814754 24.24031055 -5.40625 12.94921875 C-4.9781604 11.87694534 -4.5500708 10.80467194 -4.10900879 9.6999054 C-3.71532104 8.71701035 -3.3216333 7.7341153 -2.91601562 6.72143555 C-2.39569763 5.42208321 -2.39569763 5.42208321 -1.86486816 4.09648132 C-1 2 -1 2 0 0 Z " fill="#EFF0EB" transform="translate(483,249)"/>
<path d="M0 0 C1.65322266 0.01740234 1.65322266 0.01740234 3.33984375 0.03515625 C4.99693359 0.04869141 4.99693359 0.04869141 6.6875 0.0625 C7.54214844 0.07410156 8.39679688 0.08570313 9.27734375 0.09765625 C14.84446695 13.70507809 20.38138002 27.32367045 25.84178925 40.97425079 C26.64759932 42.9881365 27.4542851 45.0016691 28.2612915 47.01507568 C28.52927677 47.68368496 28.79726204 48.35229424 29.07336807 49.0411644 C29.61534112 50.39327931 30.15734091 51.74538351 30.69936752 53.09747696 C32.0768621 56.53471198 33.45207523 59.97283313 34.82324219 63.41259766 C36.18585248 66.83044455 37.55434867 70.24588261 38.92673111 73.65981674 C39.68242193 75.54410625 40.43199833 77.43084436 41.18136597 79.31765747 C45.65345779 92.22167214 45.65345779 92.22167214 55.08984375 101.16015625 C55.88003906 101.54300781 56.67023438 101.92585937 57.484375 102.3203125 C58.07605469 102.57683594 58.66773438 102.83335937 59.27734375 103.09765625 C59.32006475 104.7637753 59.31798207 106.4314851 59.27734375 108.09765625 C58.27734375 109.09765625 58.27734375 109.09765625 56.41075134 109.21791077 C55.5957869 109.21569016 54.78082245 109.21346954 53.94116211 109.21118164 C53.02028305 109.21110611 52.09940399 109.21103058 51.15061951 109.21095276 C50.14958694 109.20579147 49.14855438 109.20063019 48.1171875 109.1953125 C46.58778282 109.19319008 46.58778282 109.19319008 45.02748108 109.19102478 C41.75657268 109.18540722 38.48573162 109.17285175 35.21484375 109.16015625 C33.00325619 109.15514351 30.79166757 109.15058021 28.58007812 109.14648438 C23.14581018 109.13543209 17.71158178 109.11867688 12.27734375 109.09765625 C12.27734375 107.11765625 12.27734375 105.13765625 12.27734375 103.09765625 C15.24734375 102.10765625 18.21734375 101.11765625 21.27734375 100.09765625 C23.24848693 94.80896061 20.88748322 90.67368077 18.83984375 85.78515625 C17.66421875 82.91828125 16.48859375 80.05140625 15.27734375 77.09765625 C3.06734375 77.09765625 -9.14265625 77.09765625 -21.72265625 77.09765625 C-25.83261308 84.93738976 -25.83261308 84.93738976 -27.03515625 93.09765625 C-27.07253906 93.96390625 -27.10992187 94.83015625 -27.1484375 95.72265625 C-26.94066085 98.22492962 -26.94066085 98.22492962 -24.9375 99.8046875 C-22.97206372 100.95205859 -21.08046344 101.93392642 -18.97265625 102.78515625 C-17.90015625 103.21828125 -16.82765625 103.65140625 -15.72265625 104.09765625 C-16.05265625 105.74765625 -16.38265625 107.39765625 -16.72265625 109.09765625 C-28.60265625 109.09765625 -40.48265625 109.09765625 -52.72265625 109.09765625 C-52.72265625 106.78765625 -52.72265625 104.47765625 -52.72265625 102.09765625 C-50.80208333 101.57682292 -48.88151042 101.05598958 -46.9609375 100.53515625 C-39.81361017 95.94490065 -37.12635092 85.12192337 -34.203125 77.5859375 C-33.68215941 76.26092964 -33.16034593 74.93625487 -32.63774109 73.6118927 C-31.54533211 70.84127694 -30.45678965 68.06918852 -29.37103271 65.29595947 C-26.9843076 59.20716548 -24.55552636 53.13517455 -22.12869644 47.06228256 C-21.07534405 44.4258984 -20.02339892 41.78895385 -18.97152519 39.15197945 C-18.44864657 37.84119513 -17.92567359 36.53044845 -17.40260506 35.21973991 C-16.0646555 31.86700224 -14.72780828 28.513831 -13.39282227 25.15991211 C-12.06500002 21.8241446 -10.73470284 18.48937427 -9.40263939 15.15529823 C-8.66243777 13.30070305 -7.92485941 11.44506157 -7.18733215 9.58940125 C-6.74564194 8.48506241 -6.30395172 7.38072357 -5.84887695 6.24291992 C-5.4609346 5.26973312 -5.07299225 4.29654633 -4.67329407 3.29386902 C-3.29874715 0.11831948 -3.29874715 0.11831948 0 0 Z " fill="#0A395F" transform="translate(183.72265625,620.90234375)"/>
<path d="M0 0 C3.96 0 7.92 0 12 0 C16.11857425 8.7829777 19.74289211 17.71523907 23.30209351 26.73418236 C24.33390336 29.34717131 25.37005972 31.9583982 26.4074707 34.56916809 C29.35335796 41.98388631 32.294777 49.40035256 35.22558594 56.82104492 C37.02715247 61.38163692 38.83639199 65.93912127 40.65048218 70.49474525 C41.33587484 72.22024186 42.01840273 73.94687945 42.69790649 75.6747036 C43.64946057 78.09360601 44.61076164 80.5084259 45.57421875 82.92260742 C45.84761078 83.6246228 46.12100281 84.32663818 46.40267944 85.04992676 C48.66249897 90.66570651 51.27505513 96.9836359 56.23828125 100.65625 C56.92277344 100.9346875 57.60726562 101.213125 58.3125 101.5 C59.529375 101.995 60.74625 102.49 62 103 C62.042721 104.66611905 62.04063832 106.33382885 62 108 C61 109 61 109 59.13340759 109.12025452 C58.31844315 109.11803391 57.5034787 109.11581329 56.66381836 109.11352539 C55.7429393 109.11344986 54.82206024 109.11337433 53.87327576 109.11329651 C52.87224319 109.10813522 51.87121063 109.10297394 50.83984375 109.09765625 C49.31043907 109.09553383 49.31043907 109.09553383 47.75013733 109.09336853 C44.47922893 109.08775097 41.20838787 109.0751955 37.9375 109.0625 C35.72591244 109.05748726 33.51432382 109.05292396 31.30273438 109.04882812 C25.86846643 109.03777584 20.43423803 109.02102063 15 109 C14.875 106.625 14.875 106.625 15 104 C17.68279973 101.31720027 20.38679134 100.98542054 24 100 C25.34825343 98.86777518 25.34825343 98.86777518 25.25 95.89453125 C24.97765124 91.65184823 23.80023374 88.46231443 22 84.6875 C19 78.19425676 19 78.19425676 19 76 C6.46 76.33 -6.08 76.66 -19 77 C-23.87583781 87.09098374 -23.87583781 87.09098374 -24 97 C-21.27625363 101.03114463 -17.4000855 102.30765942 -13 104 C-13.33 105.65 -13.66 107.3 -14 109 C-18.96622349 109.02465098 -23.93241166 109.04283649 -28.89868164 109.05493164 C-30.58944316 109.0599719 -32.28020029 109.06680405 -33.97094727 109.07543945 C-36.39600707 109.08751857 -38.82100944 109.09323123 -41.24609375 109.09765625 C-42.38672523 109.10539818 -42.38672523 109.10539818 -43.55039978 109.11329651 C-45.3673257 109.11349238 -47.18413127 109.06197277 -49 109 C-50 108 -50 108 -50.0625 105.4375 C-50.0315625 104.2309375 -50.0315625 104.2309375 -50 103 C-49.20335937 102.65388672 -49.20335937 102.65388672 -48.390625 102.30078125 C-47.68421875 101.97464844 -46.9778125 101.64851562 -46.25 101.3125 C-45.55390625 100.99925781 -44.8578125 100.68601562 -44.140625 100.36328125 C-39.31763529 97.29170569 -37.21377702 92.65901214 -35.15234375 87.49609375 C-34.89948608 86.86936264 -34.64662842 86.24263153 -34.3861084 85.59690857 C-33.56158485 83.54699553 -32.74944211 81.4924251 -31.9375 79.4375 C-31.35946744 77.99273623 -30.7807632 76.54824102 -30.20141602 75.10400391 C-28.45489091 70.74100498 -26.72519326 66.37147077 -25 62 C-24.74911621 61.36487488 -24.49823242 60.72974976 -24.23974609 60.07537842 C-21.74190002 53.75012642 -19.25884934 47.41914211 -16.78125 41.0859375 C-13.96085581 33.88618846 -11.10957729 26.69898683 -8.2427063 19.51763916 C-7.71087582 18.18500926 -7.17967462 16.85212803 -6.6491394 15.51898193 C-5.91239804 13.66819752 -5.1730506 11.81845115 -4.43359375 9.96875 C-4.01134521 8.91107422 -3.58909668 7.85339844 -3.15405273 6.76367188 C-2.1954818 4.46813074 -1.11250774 2.22501547 0 0 Z " fill="#0A395F" transform="translate(591,621)"/>
<path d="M0 0 C0.76316528 0.00359528 1.52633057 0.00719055 2.31262207 0.01089478 C3.51253029 0.01067574 3.51253029 0.01067574 4.73667908 0.01045227 C7.39344958 0.01115161 10.05015086 0.01894498 12.70690918 0.02676392 C14.54393984 0.02862802 16.38097099 0.03005196 18.21800232 0.03105164 C23.06284955 0.03487742 27.90766701 0.04470821 32.75250244 0.05575562 C37.69237871 0.06596845 42.63225978 0.07054898 47.57214355 0.07559204 C57.27202646 0.08633042 66.97188722 0.10340756 76.67175293 0.12442017 C77.80179813 9.56831787 77.80179813 9.56831787 77.76940918 13.94082642 C77.7645752 15.11548462 77.7645752 15.11548462 77.75964355 16.31387329 C77.7470752 17.48853149 77.7470752 17.48853149 77.73425293 18.68692017 C77.72974121 19.50483032 77.72522949 20.32274048 77.72058105 21.16543579 C77.70896491 23.15179663 77.69103741 25.13811897 77.67175293 27.12442017 C75.69175293 27.12442017 73.71175293 27.12442017 71.67175293 27.12442017 C71.29663574 26.37676392 70.92151855 25.62910767 70.53503418 24.85879517 C65.90839547 15.79607404 65.90839547 15.79607404 57.25769043 11.04238892 C51.76288953 9.72346143 46.28910477 9.90874006 40.67175293 9.99942017 C37.04175293 10.04067017 33.41175293 10.08192017 29.67175293 10.12442017 C29.34175293 22.66442017 29.01175293 35.20442017 28.67175293 48.12442017 C32.15737793 48.04192017 35.64300293 47.95942017 39.23425293 47.87442017 C40.86149292 47.85073364 40.86149292 47.85073364 42.52160645 47.8265686 C48.71522011 47.61006845 52.64999299 46.83527891 57.67175293 43.12442017 C58.37300293 42.05192017 59.07425293 40.97942017 59.79675293 39.87442017 C60.41550293 38.96692017 61.03425293 38.05942017 61.67175293 37.12442017 C63.32175293 37.12442017 64.97175293 37.12442017 66.67175293 37.12442017 C66.67175293 48.34442017 66.67175293 59.56442017 66.67175293 71.12442017 C64.69175293 71.12442017 62.71175293 71.12442017 60.67175293 71.12442017 C60.07362793 70.03129517 59.47550293 68.93817017 58.85925293 67.81192017 C56.59897915 63.87235847 55.09389673 61.5984681 50.67175293 60.12442017 C49.04608214 59.97726818 47.41588436 59.8772015 45.78503418 59.80801392 C44.84724121 59.76611938 43.90944824 59.72422485 42.9432373 59.68106079 C41.47854004 59.62208618 41.47854004 59.62208618 39.98425293 59.56192017 C38.50215332 59.49714478 38.50215332 59.49714478 36.9901123 59.43106079 C34.55079747 59.32500362 32.1113818 59.22294303 29.67175293 59.12442017 C29.69119473 64.16060764 29.74297443 69.1950529 29.82434082 74.23062134 C29.84749318 75.94243876 29.86191008 77.65439806 29.86730957 79.36636353 C29.87661996 81.83218515 29.91765072 84.29578391 29.96472168 86.76113892 C29.96078903 87.52278854 29.95685638 88.28443817 29.95280457 89.06916809 C30.06123295 93.04555191 30.50610982 94.91600365 33.00891113 98.06509399 C35.8419573 100.25604883 38.21937231 101.24125303 41.67175293 102.12442017 C41.71447393 103.79053922 41.71239125 105.45824901 41.67175293 107.12442017 C40.67175293 108.12442017 40.67175293 108.12442017 38.80516052 108.24467468 C37.99019608 108.24245407 37.17523163 108.24023346 36.33557129 108.23794556 C34.9542527 108.23783226 34.9542527 108.23783226 33.54502869 108.23771667 C32.54399612 108.23255539 31.54296356 108.2273941 30.51159668 108.22207642 C28.982192 108.21995399 28.982192 108.21995399 27.42189026 108.2177887 C24.15098186 108.21217113 20.8801408 108.19961567 17.60925293 108.18692017 C15.39766537 108.18190743 13.18607675 108.17734413 10.9744873 108.17324829 C5.54021936 108.162196 0.10599095 108.1454408 -5.32824707 108.12442017 C-5.32824707 105.81442017 -5.32824707 103.50442017 -5.32824707 101.12442017 C-0.87324707 100.13442017 -0.87324707 100.13442017 3.67175293 99.12442017 C4.69838702 95.01788379 4.82668409 91.30571528 4.83288574 87.11465454 C4.83785065 86.31094925 4.84281555 85.50724396 4.84793091 84.67918396 C4.86251426 82.02550394 4.8693468 79.37188363 4.87487793 76.71817017 C4.88063087 74.8725891 4.88638858 73.02700804 4.89215088 71.181427 C4.9026488 67.31460288 4.90849993 63.44779949 4.9119873 59.58096313 C4.91748106 54.62427749 4.94153289 49.66786529 4.96995926 44.71126556 C4.98857021 40.90059604 4.99379033 37.08999275 4.99532318 33.27928162 C4.99835182 31.45161945 5.00638744 29.62395852 5.01950836 27.79634094 C5.03654284 25.24207603 5.03469557 22.68848429 5.02819824 20.13418579 C5.04202042 19.00101677 5.04202042 19.00101677 5.05612183 17.84495544 C5.03126482 14.72913208 4.85867288 12.47494476 3.37994385 9.70193481 C0.82201541 7.3396874 -1.99175498 6.87985234 -5.32824707 6.12442017 C-5.71043474 4.46827359 -6.04219809 2.79984992 -6.32824707 1.12442017 C-4.5853253 -0.6185016 -2.32201212 0.00461713 0 0 Z " fill="#0C3B61" transform="translate(422.3282470703125,621.8755798339844)"/>
<path d="M0 0 C15.18 0 30.36 0 46 0 C46.495 2.475 46.495 2.475 47 5 C44.68032603 6.87358282 42.60301781 8.18261181 39.875 9.4375 C36.6496746 11.19039424 36.17970602 11.63934782 35 15 C34.80480679 17.61400103 34.71644076 20.12094237 34.7253418 22.734375 C34.72023087 23.50881958 34.71511993 24.28326416 34.70985413 25.08117676 C34.69596984 27.63753008 34.69691378 30.19361349 34.69921875 32.75 C34.69533162 34.52832133 34.69099691 36.30664174 34.68623352 38.08496094 C34.67877415 41.81057751 34.67906086 45.53609931 34.68432617 49.26171875 C34.69012516 54.03683259 34.67317816 58.8115591 34.6499815 63.58660889 C34.63525419 67.25832386 34.634371 70.92994529 34.63749123 74.60168457 C34.63697766 76.36235319 34.63173337 78.123027 34.62167931 79.88366699 C34.60934939 82.34457643 34.61608509 84.8047278 34.62768555 87.265625 C34.62004181 87.9930188 34.61239807 88.7204126 34.60452271 89.46984863 C34.63706287 92.59127489 34.83556155 94.70839063 36.38270569 97.45204163 C38.56985238 99.54542192 39.86233127 99.50254081 42.859375 99.49609375 C43.81070313 99.49673828 44.76203125 99.49738281 45.7421875 99.49804688 C46.73476563 99.47806641 47.72734375 99.45808594 48.75 99.4375 C49.72710937 99.44458984 50.70421875 99.45167969 51.7109375 99.45898438 C59.37468035 99.39184916 65.4630573 98.06110434 71.4453125 92.87109375 C75.08676221 88.48854497 77.48596797 83.08012982 80 78 C82.31 78 84.62 78 87 78 C87.90160076 88.91938695 85.22730315 97.86348424 83 109 C55.61 109 28.22 109 0 109 C0 106.69 0 104.38 0 102 C0.55429688 101.84144531 1.10859375 101.68289063 1.6796875 101.51953125 C2.76636719 101.16955078 2.76636719 101.16955078 3.875 100.8125 C4.59429687 100.59207031 5.31359375 100.37164063 6.0546875 100.14453125 C8.81944646 98.51787588 9.06332234 97.05628073 10 94 C10.18652168 91.34762449 10.27361373 88.80250692 10.25878906 86.15209961 C10.2622937 85.377509 10.26579834 84.6029184 10.26940918 83.80485535 C10.27818524 81.253926 10.27239256 78.70327574 10.265625 76.15234375 C10.2669727 74.37545214 10.26891411 72.59856088 10.27142334 70.82167053 C10.27436889 67.10202516 10.27009473 63.38247598 10.26074219 59.6628418 C10.24933968 54.89567643 10.25591576 50.12873608 10.26788712 45.36157894 C10.27511397 41.69416101 10.27281413 38.02679644 10.26763153 34.35937691 C10.26629775 32.60150692 10.26793324 30.84363207 10.27259064 29.08576775 C10.27767034 26.62988317 10.26992579 24.17436328 10.25878906 21.71850586 C10.26283752 20.99268311 10.26688599 20.26686035 10.27105713 19.51904297 C10.2404395 15.87398693 10.1292171 13.03795209 8 10 C5.84255767 8.66653971 5.84255767 8.66653971 3.375 7.75 C2.55773437 7.41484375 1.74046875 7.0796875 0.8984375 6.734375 C0.27195313 6.49203125 -0.35453125 6.2496875 -1 6 C-0.67 4.02 -0.34 2.04 0 0 Z " fill="#0B3B61" transform="translate(255,621)"/>
<path d="M0 0 C0.91765137 -0.00315216 1.83530273 -0.00630432 2.78076172 -0.009552 C4.27760498 -0.00651566 4.27760498 -0.00651566 5.8046875 -0.00341797 C6.82191895 -0.00437469 7.83915039 -0.00533142 8.88720703 -0.00631714 C11.04264386 -0.00699908 13.19808272 -0.00514382 15.35351562 -0.00097656 C18.66541121 0.00437148 21.97717117 -0.0009211 25.2890625 -0.00732422 C27.37760447 -0.00666344 29.46614635 -0.00538228 31.5546875 -0.00341797 C32.55258301 -0.0054422 33.55047852 -0.00746643 34.57861328 -0.009552 C35.49626465 -0.00639984 36.41391602 -0.00324768 37.359375 0 C38.17132324 0.00079559 38.98327148 0.00159119 39.81982422 0.00241089 C41.6796875 0.12939453 41.6796875 0.12939453 42.6796875 1.12939453 C42.72032582 2.79556568 42.7224085 4.46327548 42.6796875 6.12939453 C41.98101562 6.39751953 41.28234375 6.66564453 40.5625 6.94189453 C39.65242188 7.33376953 38.74234375 7.72564453 37.8046875 8.12939453 C36.89976562 8.50064453 35.99484375 8.87189453 35.0625 9.25439453 C31.70159449 11.89904149 31.3796024 15.09349759 30.6796875 19.12939453 C30.50745767 21.6550284 30.42405593 24.18798492 30.42089844 26.71948242 C30.4173938 27.43117081 30.41388916 28.14285919 30.41027832 28.87611389 C30.4015588 31.20152883 30.40727451 33.52663338 30.4140625 35.85205078 C30.41271318 37.48294635 30.41077043 39.11384152 30.40826416 40.74473572 C30.40532627 44.15139623 30.40956793 47.5579514 30.41894531 50.96459961 C30.43034817 55.31774039 30.42376666 59.67063473 30.41180038 64.02376652 C30.40455336 67.38762754 30.40688259 70.75143068 30.41205597 74.1152935 C30.41338414 75.71996528 30.41177412 77.32464242 30.40709686 78.92930794 C30.40198365 81.17591286 30.40980809 83.42212527 30.42089844 85.66870117 C30.42248962 86.9436293 30.42408081 88.21855743 30.42572021 89.53211975 C30.6983446 93.39365978 31.49066647 96.4629513 32.6796875 100.12939453 C33.31777344 100.26216797 33.95585937 100.39494141 34.61328125 100.53173828 C35.43957031 100.70833984 36.26585937 100.88494141 37.1171875 101.06689453 C37.94089844 101.24091797 38.76460938 101.41494141 39.61328125 101.59423828 C41.6796875 102.12939453 41.6796875 102.12939453 42.6796875 103.12939453 C42.8046875 105.62939453 42.8046875 105.62939453 42.6796875 108.12939453 C41.6796875 109.12939453 41.6796875 109.12939453 39.81309509 109.24964905 C38.99813065 109.24742844 38.1831662 109.24520782 37.34350586 109.24291992 C35.96218727 109.24280663 35.96218727 109.24280663 34.55296326 109.24269104 C33.55193069 109.23752975 32.55089813 109.23236847 31.51953125 109.22705078 C29.99012657 109.22492836 29.99012657 109.22492836 28.42982483 109.22276306 C25.15891643 109.2171455 21.88807537 109.20459003 18.6171875 109.19189453 C16.40559994 109.18688179 14.19401132 109.1823185 11.98242188 109.17822266 C6.54815393 109.16717037 1.11392553 109.15041516 -4.3203125 109.12939453 C-4.3203125 106.81939453 -4.3203125 104.50939453 -4.3203125 102.12939453 C-3.69382812 101.98244141 -3.06734375 101.83548828 -2.421875 101.68408203 C-1.60460937 101.45978516 -0.78734375 101.23548828 0.0546875 101.00439453 C1.27285156 100.69115234 1.27285156 100.69115234 2.515625 100.37158203 C4.92560393 99.27629549 4.92560393 99.27629549 5.79777527 96.52342224 C6.77876704 92.74808822 6.94068719 89.48311158 6.9543457 85.58276367 C6.95945663 84.8518602 6.96456757 84.12095673 6.96983337 83.36790466 C6.9836629 80.96670197 6.98277773 78.56578842 6.98046875 76.16455078 C6.98435918 74.48595576 6.98869456 72.80736171 6.99345398 71.12876892 C7.00090179 67.61600549 7.00063526 64.1033426 6.99536133 60.59057617 C6.98956695 56.10054046 7.00650378 51.61091728 7.029706 47.12094975 C7.04447385 43.65585444 7.04531093 40.19085782 7.04219627 36.72573662 C7.0427079 35.07081726 7.04791568 33.41589215 7.05800819 31.76100349 C7.07041565 29.44220674 7.06355596 27.124205 7.05200195 24.80541992 C7.05263138 23.4889296 7.0532608 22.17243927 7.0539093 20.8160553 C6.62053875 16.54668833 5.64768114 13.92123834 3.6796875 10.12939453 C1.49429555 8.4827409 1.49429555 8.4827409 -1.0078125 7.69189453 C-1.81605469 7.38380859 -2.62429688 7.07572266 -3.45703125 6.75830078 C-4.07191406 6.55076172 -4.68679688 6.34322266 -5.3203125 6.12939453 C-5.3630335 4.46327548 -5.36095082 2.79556568 -5.3203125 1.12939453 C-3.74730922 -0.44360875 -2.18347205 0.00213949 0 0 Z " fill="#0C3A5F" transform="translate(358.3203125,620.87060546875)"/>
<path d="M0 0 C36.89526185 0 36.89526185 0 45.58984375 8.56640625 C51.52335396 15.05119613 53.57342583 21.15100529 53.5 29.8125 C53.49355469 30.60567627 53.48710938 31.39885254 53.48046875 32.21606445 C53.21156505 40.85901843 50.58410886 46.75405548 44.4375 52.875 C30.1685165 62.92357993 17.77163656 60 0 60 C0 40.2 0 20.4 0 0 Z " fill="#0A375D" transform="translate(482,773)"/>
<path d="M0 0 C-0.67095703 0.96486328 -0.67095703 0.96486328 -1.35546875 1.94921875 C-10.24015806 15.22889296 -13.81011857 27.12609448 -12 43 C-9.68165367 54.08661707 -2.7179086 63.9092353 6 71 C11.1030301 74.23239687 16.36795598 76.82836501 22 79 C22 79.33 22 79.66 22 80 C6.99648501 80.96796871 -7.49138743 76.11209355 -21 70 C-22.14855469 69.48695313 -23.29710937 68.97390625 -24.48046875 68.4453125 C-38.75648862 61.70251441 -52.81220867 52.18779133 -64 41 C-63.87588322 36.18426903 -61.22190712 33.56099595 -57.9375 30.375 C-57.40439209 29.85502441 -56.87128418 29.33504883 -56.32202148 28.79931641 C-46.95686771 19.9451355 -13.1424232 -6.5712116 0 0 Z " fill="#EEEFEA" transform="translate(471,397)"/>
<path d="M0 0 C6.75976129 1.13075264 12.84211125 2.83376367 19.125 5.5625 C19.93831787 5.91183594 20.75163574 6.26117188 21.58959961 6.62109375 C33.75002568 11.96206936 44.99688734 18.19053608 55 27 C55.92167969 27.77859375 56.84335937 28.5571875 57.79296875 29.359375 C64.61786436 35.25054018 64.61786436 35.25054018 66.0078125 37.9765625 C65.9921423 42.03514392 62.42703835 44.50461966 59.78515625 47.28125 C42.98740724 63.67849167 23.37867216 73.76611526 1 80 C-0.29744141 80.37125 -0.29744141 80.37125 -1.62109375 80.75 C-7.40273158 82.23405677 -13.05786074 82.19992244 -19 82 C-16.1588184 80.10587894 -13.40010384 78.75549027 -10.3125 77.3125 C1.83613178 71.22354721 9.39148439 61.80143224 14 49 C17.96940369 33.23499242 13.73539665 20.20518837 5.78125 6.62890625 C4.06002964 4.08859638 2.24426482 2.08185092 0 0 Z " fill="#EFEFEA" transform="translate(540,395)"/>
<path d="M0 0 C4.29 0 8.58 0 13 0 C15.80253941 2.8767342 16.87615528 4.33110349 18.4375 7.8125 C19.03087158 8.96987671 19.03087158 8.96987671 19.63623047 10.15063477 C20.42576314 11.69665515 21.19549987 13.25296547 21.94384766 14.81933594 C23.37459983 17.7734456 24.99546141 20.58865631 26.625 23.4375 C29 27.73480663 29 27.73480663 29 30 C29.66 30 30.32 30 31 30 C31.27255615 29.11989258 31.5451123 28.23978516 31.82592773 27.33300781 C32.92019017 24.22656764 34.19297694 21.54735453 35.78515625 18.671875 C36.31560547 17.70765625 36.84605469 16.7434375 37.39257812 15.75 C37.94365234 14.76 38.49472656 13.77 39.0625 12.75 C40.1576826 10.76569703 41.25274101 8.78132551 42.34765625 6.796875 C42.83242432 5.92385742 43.31719238 5.05083984 43.81665039 4.15136719 C44.57017938 2.78142755 45.30078035 1.39843929 46 0 C50.62 0 55.24 0 60 0 C60 19.8 60 39.6 60 60 C56.37 60 52.74 60 49 60 C48.67 47.46 48.34 34.92 48 22 C44.93036902 27.27719484 44.93036902 27.27719484 41.8684082 32.55883789 C40.60338675 34.72141601 39.3062141 36.86207799 38 39 C37.59185059 39.6997998 37.18370117 40.39959961 36.76318359 41.12060547 C35.54296875 43.05859375 35.54296875 43.05859375 33 46 C29.8984375 46.6953125 29.8984375 46.6953125 27 46 C25.1640625 44.3046875 25.1640625 44.3046875 23.625 41.875 C23.04878906 40.97523438 22.47257813 40.07546875 21.87890625 39.1484375 C20.94884766 37.58996094 20.94884766 37.58996094 20 36 C19.46028564 35.1013623 19.46028564 35.1013623 18.90966797 34.18457031 C12 22.61780401 12 22.61780401 12 20 C11.34 20 10.68 20 10 20 C10 33.2 10 46.4 10 60 C6.7 60 3.4 60 0 60 C0 40.2 0 20.4 0 0 Z " fill="#0B385D" transform="translate(628,773)"/>
<path d="M0 0 C3.63 0 7.26 0 11 0 C17.19831963 14.82895327 23.33347729 29.68109425 29.25 44.625 C29.72735596 45.82092773 30.20471191 47.01685547 30.6965332 48.24902344 C31.1318335 49.35536133 31.56713379 50.46169922 32.015625 51.6015625 C32.40008789 52.57432129 32.78455078 53.54708008 33.18066406 54.54931641 C34 57 34 57 34 60 C30.37 60 26.74 60 23 60 C21.35 55.71 19.7 51.42 18 47 C9.75 47 1.5 47 -7 47 C-8.65 51.29 -10.3 55.58 -12 60 C-15.63 60 -19.26 60 -23 60 C-22.36948213 54.64833945 -20.62880873 50.1027774 -18.61328125 45.15625 C-18.27378952 44.31010132 -17.93429779 43.46395264 -17.58451843 42.59216309 C-16.49947899 39.89246738 -15.40594124 37.196302 -14.3125 34.5 C-13.59648632 32.71895851 -12.88098678 30.93771025 -12.16601562 29.15625 C-8.23398094 19.38292583 -4.2077693 9.65803377 0 0 Z " fill="#0D3B60" transform="translate(425,773)"/>
<path d="M0 0 C1.51400391 0.01740234 1.51400391 0.01740234 3.05859375 0.03515625 C4.07050781 0.04417969 5.08242188 0.05320312 6.125 0.0625 C6.90746094 0.07410156 7.68992187 0.08570313 8.49609375 0.09765625 C11.89788212 8.41156214 15.28633733 16.73084546 18.66583252 25.05383301 C19.50802853 27.12703566 20.35139046 29.19976156 21.19482422 31.27246094 C22.59397627 34.71277011 23.98712205 38.15546165 25.37634277 41.59979248 C25.91382248 42.9299999 26.45312547 44.25947208 26.9942627 45.5881958 C27.75367484 47.45394747 28.50590614 49.32261709 29.2578125 51.19140625 C29.69053467 52.26068359 30.12325684 53.32996094 30.5690918 54.43164062 C31.49609375 57.09765625 31.49609375 57.09765625 31.49609375 60.09765625 C27.86609375 60.09765625 24.23609375 60.09765625 20.49609375 60.09765625 C19.65845107 58.14116228 18.82610316 56.18240069 17.99609375 54.22265625 C17.53203125 53.13210938 17.06796875 52.0415625 16.58984375 50.91796875 C15.49609375 48.09765625 15.49609375 48.09765625 15.49609375 46.09765625 C3.12109375 46.59265625 3.12109375 46.59265625 -9.50390625 47.09765625 C-11.15390625 51.38765625 -12.80390625 55.67765625 -14.50390625 60.09765625 C-18.13390625 60.09765625 -21.76390625 60.09765625 -25.50390625 60.09765625 C-24.87543634 54.72724148 -23.11389077 50.17719721 -21.08203125 45.21875 C-20.74016785 44.37022964 -20.39830444 43.52170929 -20.04608154 42.6474762 C-18.95438306 39.94102674 -17.85445509 37.23801731 -16.75390625 34.53515625 C-15.67216118 31.86344911 -14.59214356 29.19104969 -13.51257324 26.51846313 C-12.81347998 24.78837506 -12.11337932 23.05869368 -11.41223145 21.32943726 C-8.99449123 15.35591045 -6.66318177 9.35656349 -4.40527344 3.32055664 C-3.10796788 0.1212156 -3.10796788 0.1212156 0 0 Z " fill="#0C385E" transform="translate(278.50390625,772.90234375)"/>
<path d="M0 0 C13.53 0 27.06 0 41 0 C41 3.3 41 6.6 41 10 C31.1 10 21.2 10 11 10 C11 14.95 11 19.9 11 25 C19.58 25 28.16 25 37 25 C37 28.3 37 31.6 37 35 C28.42 35 19.84 35 11 35 C11 39.95 11 44.9 11 50 C21.23 50 31.46 50 42 50 C42 53.3 42 56.6 42 60 C28.14 60 14.28 60 0 60 C0 40.2 0 20.4 0 0 Z " fill="#103F64" transform="translate(561,773)"/>
<path d="M0 0 C3.06406588 2.24582101 5.54649722 4.66466298 8.0625 7.51171875 C6.72917905 11.51168161 4.5667173 12.34954212 1.0625 14.51171875 C-1.47921204 13.33862089 -3.66633744 12.02086905 -6 10.44921875 C-11.12141948 7.07126122 -15.94928059 6.72216093 -21.9375 7.51171875 C-27.04443461 9.60843296 -30.94988261 12.85103562 -33.9375 17.51171875 C-35.80766971 23.36070589 -35.98834998 30.63276824 -33.75 36.38671875 C-30.5912675 41.83280926 -26.88225504 45.33959672 -20.9375 47.51171875 C-14.86797917 48.32172793 -10.27752748 47.44349855 -4.9375 44.51171875 C-4.215625 43.76921875 -3.49375 43.02671875 -2.75 42.26171875 C-0.9375 40.51171875 -0.9375 40.51171875 1 40.51171875 C3.69275116 41.81729507 5.80190302 43.56509358 8.0625 45.51171875 C7.67796761 48.01930318 7.29467468 49.27491215 5.49609375 51.109375 C-3.42342775 57.65501211 -10.7565407 59.67200698 -21.9375 58.51171875 C-30.58462572 56.62016 -37.49656562 52.59160192 -42.50390625 45.19921875 C-47.35140512 36.80241159 -48.19605527 28.07400283 -46.9375 18.51171875 C-44.1987437 9.72813606 -39.64519202 3.87915115 -31.83203125 -0.73046875 C-22.07653172 -5.46932112 -9.38447963 -5.53240438 0 0 Z " fill="#0C385D" transform="translate(373.9375,775.48828125)"/>
<path d="M0 0 C2.40376533 -0.03387175 4.80704809 -0.05860612 7.2109375 -0.078125 C8.22595337 -0.09383545 8.22595337 -0.09383545 9.26147461 -0.10986328 C15.9848887 -0.15078485 20.15090964 1.16391954 25.8125 4.8125 C30.30048824 9.30048824 31.2213134 13.1416196 31.4375 19.375 C31.28824577 25.06612872 30.59245261 29.48154253 27 34 C19.55657166 40.42841538 10.40139987 40.64681631 1 40 C0 39 0 39 -0.11352539 35.30639648 C-0.11336624 33.66128708 -0.10766988 32.01617269 -0.09765625 30.37109375 C-0.0962413 29.50686295 -0.09482635 28.64263214 -0.09336853 27.75221252 C-0.08775239 24.98060708 -0.07519719 22.2090812 -0.0625 19.4375 C-0.05748708 17.5631522 -0.05292381 15.68880315 -0.04882812 13.81445312 C-0.03777772 9.20960456 -0.0205023 4.60481579 0 0 Z " fill="#EEEFEA" transform="translate(493,783)"/>
<path d="M0 0 C4.71502471 -1.21436249 8.33381929 -1.52344495 13 0 C17.34497636 4.49053887 20.10937214 10.33688006 22.85595703 15.89355469 C23.97218563 18.07813519 23.97218563 18.07813519 25.64013672 20.14550781 C27 22 27 22 27 24 C30.34639637 21.06658903 32.54289873 18.26389906 34.69140625 14.35546875 C42.25678729 0.62779348 42.25678729 0.62779348 47.44921875 -1.2421875 C50.51191302 -1.19144464 53.07405375 -0.887122 56 0 C54.71059117 3.47054405 53.20415802 6.45553351 51.171875 9.546875 C50.61886719 10.3925 50.06585937 11.238125 49.49609375 12.109375 C48.63177734 13.41648437 48.63177734 13.41648437 47.75 14.75 C47.18925781 15.6059375 46.62851562 16.461875 46.05078125 17.34375 C45.49261719 18.19453125 44.93445313 19.0453125 44.359375 19.921875 C43.52720459 21.2059021 43.52720459 21.2059021 42.67822266 22.51586914 C41 25 41 25 39.27099609 27.16967773 C34.26229348 33.66158335 34.10723128 39.53547978 34.125 47.5625 C34.104375 48.76197266 34.08375 49.96144531 34.0625 51.19726562 C34.01574389 54.13121184 34.0042681 57.06568435 34 60 C30.37 60 26.74 60 23 60 C23.04382813 58.36933594 23.08765625 56.73867188 23.1328125 55.05859375 C23.22799689 41.41166267 22.352737 32.43436423 13.53369141 21.91308594 C10.55059178 18.19204667 8.00028597 14.16450389 5.375 10.1875 C4.57582153 9.01102905 4.57582153 9.01102905 3.76049805 7.81079102 C3.26976807 7.08303467 2.77903809 6.35527832 2.2734375 5.60546875 C1.83435059 4.95731201 1.39526367 4.30915527 0.94287109 3.64135742 C0 2 0 2 0 0 Z " fill="#0B3A60" transform="translate(709,773)"/>
<path d="M0 0 C2.31 0 4.62 0 7 0 C7.90160076 10.91938695 5.22730315 19.86348424 3 31 C-24.39 31 -51.78 31 -80 31 C-80 28.69 -80 26.38 -80 24 C-78.02 24 -76.04 24 -74 24 C-74 24.33 -74 24.66 -74 25 C-75.65 25 -77.3 25 -79 25 C-79 26.32 -79 27.64 -79 29 C-62.5 28.67 -46 28.34 -29 28 C-29 27.01 -29 26.02 -29 25 C-29.99902344 24.87882813 -30.99804688 24.75765625 -32.02734375 24.6328125 C-33.31769531 24.46523438 -34.60804688 24.29765625 -35.9375 24.125 C-37.22527344 23.96257813 -38.51304687 23.80015625 -39.83984375 23.6328125 C-40.88269531 23.42398438 -41.92554688 23.21515625 -43 23 C-43.495 22.01 -43.495 22.01 -44 21 C-43.30962646 21.01571045 -42.61925293 21.0314209 -41.90795898 21.04760742 C-38.75122412 21.11033453 -35.59462085 21.14911 -32.4375 21.1875 C-31.35146484 21.21263672 -30.26542969 21.23777344 -29.14648438 21.26367188 C-21.02053358 21.33776869 -14.92584774 20.39850574 -8.5546875 14.87109375 C-4.91323779 10.48854497 -2.51403203 5.08012982 0 0 Z " fill="#09345A" transform="translate(335,699)"/>
<path d="M0 0 C3.22165313 1.61082657 3.79491435 4.99990958 5.0390625 8.2109375 C5.32478119 8.93487701 5.61049988 9.65881653 5.90487671 10.4046936 C6.50829797 11.9384022 7.10827189 13.47347086 7.70507812 15.00976562 C8.6198433 17.36174147 9.54731157 19.70840281 10.4765625 22.0546875 C11.06066288 23.54397022 11.64402099 25.03354433 12.2265625 26.5234375 C12.50464752 27.22665131 12.78273254 27.92986511 13.06924438 28.65438843 C14.20212106 31.58787511 15 33.82593463 15 37 C5.43 37 -4.14 37 -14 37 C-13.17509527 32.05057163 -12.00850345 28.15227604 -10.05859375 23.6328125 C-9.77146011 22.95322479 -9.48432648 22.27363708 -9.18849182 21.57345581 C-8.27756035 19.42133627 -7.35769767 17.27317147 -6.4375 15.125 C-5.81515942 13.65910696 -5.19340847 12.19296346 -4.57226562 10.7265625 C-3.05498257 7.1481081 -1.52968239 3.5731706 0 0 Z " fill="#EEEFEB" transform="translate(180,650)"/>
<path d="M0 0 C0.66 0 1.32 0 2 0 C3.86016188 4.6230046 5.71129908 9.24948162 7.55419922 13.87939453 C8.18226898 15.45362205 8.812785 17.0268759 9.44580078 18.59912109 C10.35575351 20.8604322 11.2568244 23.12510967 12.15625 25.390625 C12.44060913 26.09181458 12.72496826 26.79300415 13.01794434 27.51544189 C14.37062166 30.94759106 15 33.25207061 15 37 C5.76 37 -3.48 37 -13 37 C-13.33 36.34 -13.66 35.68 -14 35 C-13.17311127 32.57758412 -12.28047278 30.26498663 -11.2890625 27.91015625 C-11.00147064 27.20982773 -10.71387878 26.50949921 -10.41757202 25.78794861 C-9.4939661 23.54305965 -8.55977972 21.30275623 -7.625 19.0625 C-6.69969553 16.82490624 -5.776534 14.58643902 -4.85385132 12.34776306 C-4.27826972 10.95349888 -3.70071872 9.56004574 -3.1210022 8.16749573 C-1.99719136 5.46280094 -0.92661983 2.77985948 0 0 Z " fill="#EEEFEB" transform="translate(590,650)"/>
<path d="M0 0 C2.35154272 2.12696791 3.59984597 3.9441045 4.76171875 6.88549805 C5.07214111 7.66028 5.38256348 8.43506195 5.70239258 9.23332214 C6.02747803 10.06769302 6.35256348 10.9020639 6.6875 11.76171875 C7.03127686 12.62634232 7.37505371 13.49096588 7.72924805 14.38179016 C8.82680532 17.1475317 9.913432 19.91742528 11 22.6875 C11.73107441 24.53347908 12.46283778 26.37918548 13.1953125 28.22460938 C15.14407165 33.1444244 17.08339911 38.06756728 19 43 C19.44351807 44.11829697 19.44351807 44.11829697 19.89599609 45.25918579 C21.08457583 48.31074603 22 50.69472034 22 54 C18.37 54 14.74 54 11 54 C8.525 47.565 8.525 47.565 6 41 C-6.87 40.505 -6.87 40.505 -20 40 C-20 39.67 -20 39.34 -20 39 C-9.605 38.505 -9.605 38.505 1 38 C0.67 36.68 0.34 35.36 0 34 C-5.28 33.67 -10.56 33.34 -16 33 C-16 32.67 -16 32.34 -16 32 C-10.06 31.67 -4.12 31.34 2 31 C1.566875 29.72125 1.13375 28.4425 0.6875 27.125 C-0.98505617 22.11529605 -2.50869979 17.06619007 -4 12 C-3.34 12 -2.68 12 -2 12 C-2.33 10.68 -2.66 9.36 -3 8 C-1.68 7.01 -0.36 6.02 1 5 C0.67 3.35 0.34 1.7 0 0 Z " fill="#093257" transform="translate(437,779)"/>
<path d="M0 0 C27.06 0 54.12 0 82 0 C83.125 10.125 83.125 10.125 83.09765625 13.81640625 C83.09282227 14.99106445 83.09282227 14.99106445 83.08789062 16.18945312 C83.07532227 17.36411133 83.07532227 17.36411133 83.0625 18.5625 C83.05798828 19.38041016 83.05347656 20.19832031 83.04882812 21.04101562 C83.03721198 23.02737647 83.01928448 25.0136988 83 27 C81.02 27 79.04 27 77 27 C76.62488281 26.25234375 76.24976563 25.5046875 75.86328125 24.734375 C72.20433492 17.2488634 72.20433492 17.2488634 66 12 C59.33148749 9.94756308 52.94872953 9.58372279 46 9.375 C44.40865234 9.31699219 44.40865234 9.31699219 42.78515625 9.2578125 C40.19026933 9.16430306 37.59537551 9.07855098 35 9 C35 8.67 35 8.34 35 8 C40.94 7.505 40.94 7.505 47 7 C47.66 5.35 48.32 3.7 49 2 C32.83 2 16.66 2 0 2 C0 1.34 0 0.68 0 0 Z " fill="#072D54" transform="translate(417,622)"/>
<path d="M0 0 C4.21968485 3.54837135 5.57339482 5.72305335 6.1875 11.25 C6.01839443 15.50984994 4.53860181 18.05913122 1.75 21.3125 C-2.66389894 24.04536083 -7.21008981 24.10618664 -12.25 23.3125 C-15.87160551 21.42549112 -17.93934422 19.24446733 -19.25 15.3125 C-19.75247331 11.54395017 -20.08718859 7.89980956 -18.2734375 4.4609375 C-13.26322822 -1.77877099 -7.39671657 -3.84060284 0 0 Z " fill="#EEEFEA" transform="translate(515.25,408.6875)"/>
<path d="M0 0 C1.51400391 0.01740234 1.51400391 0.01740234 3.05859375 0.03515625 C4.07050781 0.04417969 5.08242188 0.05320312 6.125 0.0625 C7.29869141 0.07990234 7.29869141 0.07990234 8.49609375 0.09765625 C9.36165323 2.19716211 10.21320652 4.30244695 11.05859375 6.41015625 C11.53425781 7.58191406 12.00992187 8.75367188 12.5 9.9609375 C13.49609375 13.09765625 13.49609375 13.09765625 12.49609375 16.09765625 C11.50609375 16.09765625 10.51609375 16.09765625 9.49609375 16.09765625 C9.16609375 17.08765625 8.83609375 18.07765625 8.49609375 19.09765625 C7.83609375 19.09765625 7.17609375 19.09765625 6.49609375 19.09765625 C8.42535943 25.06425981 8.42535943 25.06425981 10.68359375 30.91015625 C11.49609375 33.09765625 11.49609375 33.09765625 11.49609375 37.09765625 C5.55609375 37.09765625 -0.38390625 37.09765625 -6.50390625 37.09765625 C-4.50390625 31.09765625 -2.50390625 25.09765625 -0.50390625 19.09765625 C-1.82390625 18.76765625 -3.14390625 18.43765625 -4.50390625 18.09765625 C-4.50390625 17.10765625 -4.50390625 16.11765625 -4.50390625 15.09765625 C-5.82390625 15.09765625 -7.14390625 15.09765625 -8.50390625 15.09765625 C-7.6948387 12.7839022 -6.88183708 10.47166677 -6.06640625 8.16015625 C-5.83630859 7.50080078 -5.60621094 6.84144531 -5.36914062 6.16210938 C-3.23332357 0.12610466 -3.23332357 0.12610466 0 0 Z " fill="#0C3A5F" transform="translate(278.50390625,772.90234375)"/>
<path d="M0 0 C3.0577696 0.05084177 5.61765698 0.35644221 8.5390625 1.2421875 C7.24965367 4.71273155 5.74322052 7.69772101 3.7109375 10.7890625 C3.15792969 11.6346875 2.60492187 12.4803125 2.03515625 13.3515625 C1.17083984 14.65867187 1.17083984 14.65867187 0.2890625 15.9921875 C-0.55205078 17.27609375 -0.55205078 17.27609375 -1.41015625 18.5859375 C-1.96832031 19.43671875 -2.52648437 20.2875 -3.1015625 21.1640625 C-3.65634277 22.02008057 -4.21112305 22.87609863 -4.78271484 23.75805664 C-6.4609375 26.2421875 -6.4609375 26.2421875 -8.18994141 28.41186523 C-13.19864402 34.90377085 -13.35370622 40.77766728 -13.3359375 48.8046875 C-13.3565625 50.00416016 -13.3771875 51.20363281 -13.3984375 52.43945312 C-13.44519361 55.37339934 -13.4566694 58.30787185 -13.4609375 61.2421875 C-17.0909375 61.2421875 -20.7209375 61.2421875 -24.4609375 61.2421875 C-24.7909375 52.3321875 -25.1209375 43.4221875 -25.4609375 34.2421875 C-24.8009375 34.5721875 -24.1409375 34.9021875 -23.4609375 35.2421875 C-23.4609375 43.1621875 -23.4609375 51.0821875 -23.4609375 59.2421875 C-20.8209375 59.2421875 -18.1809375 59.2421875 -15.4609375 59.2421875 C-15.47664795 58.6123999 -15.4923584 57.9826123 -15.50854492 57.33374023 C-15.57133982 54.44914925 -15.61006808 51.56470264 -15.6484375 48.6796875 C-15.67357422 47.68904297 -15.69871094 46.69839844 -15.72460938 45.67773438 C-15.78495155 39.6234026 -15.08793099 35.66750015 -12.4609375 30.2421875 C-13.12572315 27.36260194 -13.12572315 27.36260194 -14.4609375 25.2421875 C-15.4509375 25.2421875 -16.4409375 25.2421875 -17.4609375 25.2421875 C-14.20794246 16.7864557 -8.9844316 3.22466055 0 0 Z " fill="#093257" transform="translate(756.4609375,771.7578125)"/>
<path d="M0 0 C3.25949696 3.75092881 4.85806118 8.07240903 6.6875 12.625 C7.00783203 13.40101563 7.32816406 14.17703125 7.65820312 14.9765625 C10 20.7286947 10 20.7286947 10 23 C3.73 23 -2.54 23 -9 23 C-7.1999581 17.59987429 -5.41236547 12.29965005 -3.375 7 C-2.73691406 5.329375 -2.73691406 5.329375 -2.0859375 3.625 C-1 1 -1 1 0 0 Z " fill="#EEEFEB" transform="translate(430,787)"/>
<path d="M0 0 C2.43345805 2.43345805 2.24176066 3.72850947 2.27105713 7.04968262 C2.26498444 8.10016785 2.26498444 8.10016785 2.25878906 9.171875 C2.2622937 9.91022583 2.26579834 10.64857666 2.26940918 11.40930176 C2.27823049 13.85629608 2.27237604 16.3030026 2.265625 18.75 C2.26697154 20.44628963 2.26891197 22.14257888 2.27142334 23.83886719 C2.27437514 27.3965217 2.27007519 30.95407588 2.26074219 34.51171875 C2.24934759 39.07851141 2.25590677 43.645069 2.26788712 48.21185303 C2.27510422 51.71535014 2.27281848 55.21879126 2.26763153 58.72229004 C2.26629462 60.40645373 2.2679442 62.09062246 2.27259064 63.77478027 C2.27765347 66.12603274 2.26994933 68.47690123 2.25878906 70.828125 C2.26283752 71.52844849 2.26688599 72.22877197 2.27105713 72.95031738 C2.22852915 77.77147085 2.22852915 77.77147085 0 80 C-1.48877534 77.02244933 -1.13868512 73.98485401 -1.12939453 70.72045898 C-1.13114685 69.97074829 -1.13289917 69.2210376 -1.13470459 68.4486084 C-1.13911479 65.96441348 -1.13618833 63.48028943 -1.1328125 60.99609375 C-1.13348571 59.27498867 -1.13445587 57.55388368 -1.13571167 55.83277893 C-1.13718746 52.22387793 -1.13503764 48.61500165 -1.13037109 45.00610352 C-1.1246696 40.36977137 -1.12795622 35.73349705 -1.13394356 31.09716702 C-1.13754874 27.54311178 -1.13641086 23.98907037 -1.13381577 20.43501472 C-1.1331466 18.72490495 -1.13397457 17.01479393 -1.13629532 15.30468559 C-1.1388216 12.91980515 -1.13498182 10.5350198 -1.12939453 8.15014648 C-1.13141876 7.43687698 -1.13344299 6.72360748 -1.13552856 5.98872375 C-1.11426361 1.11426361 -1.11426361 1.11426361 0 0 Z " fill="#D9E2E2" transform="translate(364,636)"/>
<path d="M0 0 C2.94233319 3.46364748 4.54253206 7.31650128 6.1875 11.5 C6.46013672 12.16386719 6.73277344 12.82773437 7.01367188 13.51171875 C8.3784855 16.93914544 9 19.25620571 9 23 C3.06 23 -2.88 23 -9 23 C-6.54234965 15.08090444 -3.33181427 7.58014704 0 0 Z " fill="#EDEFEB" transform="translate(281,787)"/>
<path d="M0 0 C13.53 0 27.06 0 41 0 C41 3.3 41 6.6 41 10 C26.15 9.505 26.15 9.505 11 9 C11 8.67 11 8.34 11 8 C20.24 8 29.48 8 39 8 C39 5.69 39 3.38 39 1 C26.46 1 13.92 1 1 1 C1 19.81 1 38.62 1 58 C11.89 58 22.78 58 34 58 C34 58.33 34 58.66 34 59 C22.78 59 11.56 59 0 59 C0 39.53 0 20.06 0 0 Z " fill="#001036" transform="translate(561,773)"/>
<path d="M0 0 C1.8125 0.125 1.8125 0.125 4 1 C5.625 3.9375 5.625 3.9375 7 7 C7.66 7.66 8.32 8.32 9 9 C9.86763991 11.96711427 10.39290243 14.96451216 11 18 C7.37 18 3.74 18 0 18 C-0.99 15.03 -1.98 12.06 -3 9 C-2.195625 8.773125 -1.39125 8.54625 -0.5625 8.3125 C0.283125 7.879375 1.12875 7.44625 2 7 C2.89386164 4.45224694 2.89386164 4.45224694 3 2 C2.01 2 1.02 2 0 2 C0 1.34 0 0.68 0 0 Z " fill="#0C3D62" transform="translate(448,815)"/>
<path d="M0 0 C0.9583374 0.00523682 1.9166748 0.01047363 2.90405273 0.01586914 C4.45576172 0.02070312 4.45576172 0.02070312 6.03881836 0.02563477 C7.12743164 0.03401367 8.21604492 0.04239258 9.33764648 0.05102539 C10.97636719 0.05779297 10.97636719 0.05779297 12.64819336 0.06469727 C15.35723144 0.07652713 18.06616248 0.09300996 20.77514648 0.11352539 C20.77514648 0.77352539 20.77514648 1.43352539 20.77514648 2.11352539 C10.38014648 2.60852539 10.38014648 2.60852539 -0.22485352 3.11352539 C-0.22485352 8.72352539 -0.22485352 14.33352539 -0.22485352 20.11352539 C-0.55485352 20.11352539 -0.88485352 20.11352539 -1.22485352 20.11352539 C-1.55485352 26.38352539 -1.88485352 32.65352539 -2.22485352 39.11352539 C-2.55485352 39.11352539 -2.88485352 39.11352539 -3.22485352 39.11352539 C-3.24950201 33.72005551 -3.26768882 28.32661814 -3.27978516 22.93310547 C-3.28482583 21.09683664 -3.29165828 19.26057185 -3.30029297 17.42431641 C-3.31237024 14.79076138 -3.31808433 12.15725923 -3.32250977 9.52368164 C-3.32767105 8.69763931 -3.33283234 7.87159698 -3.33815002 7.02052307 C-3.33834556 5.05116172 -3.28689503 3.08190926 -3.22485352 1.11352539 C-2.22485352 0.11352539 -2.22485352 0.11352539 0 0 Z " fill="#C4D1D2" transform="translate(454.224853515625,630.886474609375)"/>
<path d="M0 0 C0.33 0 0.66 0 1 0 C1.04898437 1.07378906 1.09796875 2.14757812 1.1484375 3.25390625 C1.22353398 4.69012642 1.29907876 6.12632319 1.375 7.5625 C1.4059375 8.26697266 1.436875 8.97144531 1.46875 9.69726562 C1.66449684 13.23702101 2.04805332 16.1625333 3.0625 19.59375 C4.09257891 23.33637003 4.0212728 26.09365388 3.625 29.9375 C3.51414062 31.08089844 3.40328125 32.22429688 3.2890625 33.40234375 C3.19367188 34.25957031 3.09828125 35.11679687 3 36 C8.445 35.505 8.445 35.505 14 35 C13.67 36.32 13.34 37.64 13 39 C11.02090602 39.02686553 9.04171029 39.04633375 7.0625 39.0625 C5.96035156 39.07410156 4.85820312 39.08570313 3.72265625 39.09765625 C1 39 1 39 0 38 C-0.08861992 35.1883662 -0.11522355 32.40141745 -0.09765625 29.58984375 C-0.0962413 28.74780899 -0.09482635 27.90577423 -0.09336853 27.03822327 C-0.08775263 24.33794665 -0.07519748 21.63775172 -0.0625 18.9375 C-0.05748705 17.11132932 -0.05292379 15.28515734 -0.04882812 13.45898438 C-0.03777804 8.97262458 -0.02050279 4.48632616 0 0 Z " fill="#E1E7E5" transform="translate(493,784)"/>
<path d="M0 0 C15.18 0 30.36 0 46 0 C46.495 2.475 46.495 2.475 47 5 C46.34 5.66 45.68 6.32 45 7 C44.01 6.67 43.02 6.34 42 6 C42.66 5.67 43.32 5.34 44 5 C44.33 4.01 44.66 3.02 45 2 C30.15 2.33 15.3 2.66 0 3 C0 2.01 0 1.02 0 0 Z " fill="#284362" transform="translate(255,621)"/>
<path d="M0 0 C0.99 0.33 1.98 0.66 3 1 C2.34 1 1.68 1 1 1 C1 1.99 1 2.98 1 4 C15.19 4 29.38 4 44 4 C44 4.66 44 5.32 44 6 C29.15 6 14.3 6 -1 6 C-1 1 -1 1 0 0 Z " fill="#072C50" transform="translate(607,724)"/>
<path d="M0 0 C0.33 0 0.66 0 1 0 C1.18451025 11.52164009 1.18451025 11.52164009 0 17 C-1.32 17 -2.64 17 -4 17 C-7 11.25 -7 11.25 -7 9 C-5.68 9 -4.36 9 -3 9 C-2.67 7.68 -2.34 6.36 -2 5 C-1.34 5 -0.68 5 0 5 C0 3.35 0 1.7 0 0 Z " fill="#0F3F63" transform="translate(499,631)"/>
<path d="M0 0 C14.85 0 29.7 0 45 0 C44.67 1.32 44.34 2.64 44 4 C42.68 3.67 41.36 3.34 40 3 C40.66 2.67 41.32 2.34 42 2 C28.14 1.67 14.28 1.34 0 1 C0 0.67 0 0.34 0 0 Z " fill="#0F476B" transform="translate(662,623)"/>
<path d="M0 0 C1.39214652 4.17643955 -0.29335734 6.83437793 -1.9375 10.6875 C-2.22818359 11.38939453 -2.51886719 12.09128906 -2.81835938 12.81445312 C-3.53710313 14.54650775 -4.26745331 16.27373781 -5 18 C-2.03 18 0.94 18 4 18 C4 18.66 4 19.32 4 20 C0.37 20 -3.26 20 -7 20 C-6.41161801 15.15888235 -4.92346884 11.03928805 -2.9375 6.625 C-2.65583984 5.98433594 -2.37417969 5.34367188 -2.08398438 4.68359375 C-1.39540579 3.11970341 -0.69855289 1.55946059 0 0 Z " fill="#102D50" transform="translate(260,813)"/>
<path d="M0 0 C2.83374881 3.20336822 3.5205537 5.78087253 4 10 C2 8 2 8 1 5 C0.21625 5.825 -0.5675 6.65 -1.375 7.5 C-4 10 -4 10 -6 10 C-8.125 5.375 -8.125 5.375 -7 2 C-6.01 2.99 -5.02 3.98 -4 5 C-3.67 4.34 -3.34 3.68 -3 3 C-2.01 3 -1.02 3 0 3 C0 2.01 0 1.02 0 0 Z " fill="#092C52" transform="translate(291,786)"/>
<path d="M0 0 C0.66 0.33 1.32 0.66 2 1 C2 3.64 2 6.28 2 9 C-12.85 8.505 -12.85 8.505 -28 8 C-28 7.67 -28 7.34 -28 7 C-18.76 7 -9.52 7 0 7 C0 4.69 0 2.38 0 0 Z " fill="#00143D" transform="translate(600,774)"/>
<path d="M0 0 C0.33 0 0.66 0 1 0 C1 1.65 1 3.3 1 5 C-3.625 7.125 -3.625 7.125 -7 6 C-7.66 5.01 -8.32 4.02 -9 3 C-8.67 2.67 -8.34 2.34 -8 2 C-6.5459375 2.0309375 -6.5459375 2.0309375 -5.0625 2.0625 C-1.88968786 2.35137574 -1.88968786 2.35137574 0 0 Z " fill="#083358" transform="translate(400,622)"/>
<path d="M0 0 C0 3.63 0 7.26 0 11 C-0.66 11 -1.32 11 -2 11 C-1.79375 12.11375 -1.5875 13.2275 -1.375 14.375 C-1.25125 15.57125 -1.1275 16.7675 -1 18 C-1.66 18.66 -2.32 19.32 -3 20 C-4.2940883 13.67334611 -4.15377758 7.36082598 -3 1 C-1 0 -1 0 0 0 Z " fill="#E0E4E1" transform="translate(559,426)"/>
<path d="M0 0 C2.6351148 2.37803043 3.62276802 3.92946486 4.5625 7.3125 C4.08039062 6.89097656 3.59828125 6.46945312 3.1015625 6.03515625 C2.15410156 5.21337891 2.15410156 5.21337891 1.1875 4.375 C0.56101562 3.82972656 -0.06546875 3.28445313 -0.7109375 2.72265625 C-4.23130021 -0.15257211 -6.95840836 0.08854542 -11.4375 0.3125 C-14.75936171 1.22364536 -14.75936171 1.22364536 -17.4375 2.3125 C-17.4375 1.3225 -17.4375 0.3325 -17.4375 -0.6875 C-11.38858099 -2.24851136 -5.66993333 -2.78342182 0 0 Z " fill="#092148" transform="translate(516.4375,407.6875)"/>
<path d="M0 0 C0.66 0.33 1.32 0.66 2 1 C2.625 4.0625 2.625 4.0625 3 7 C-0.63 7 -4.26 7 -8 7 C-8 6.34 -8 5.68 -8 5 C-5.03 5 -2.06 5 1 5 C0.67 3.35 0.34 1.7 0 0 Z " fill="#0F2E51" transform="translate(456,826)"/>
<path d="M0 0 C0.33 0.66 0.66 1.32 1 2 C3.3140622 2.73075648 5.64828869 3.40138258 8 4 C8 4.66 8 5.32 8 6 C8.99 6.33 9.98 6.66 11 7 C9 8 9 8 7.125 7.58203125 C1.33202907 5.48420906 1.33202907 5.48420906 -0.5 2.8125 C-0.665 2.214375 -0.83 1.61625 -1 1 C-0.67 0.67 -0.34 0.34 0 0 Z " fill="#E2E6E5" transform="translate(818,716)"/>
<path d="M0 0 C1.5 1.3125 1.5 1.3125 3 3 C3 3.99 3 4.98 3 6 C-0.63 6 -4.26 6 -8 6 C-8 5.34 -8 4.68 -8 4 C-5.03 4 -2.06 4 1 4 C0.67 2.68 0.34 1.36 0 0 Z " fill="#143153" transform="translate(307,827)"/>
<path d="M0 0 C0.33 0 0.66 0 1 0 C1 5.28 1 10.56 1 16 C0.67 16 0.34 16 0 16 C0 13.36 0 10.72 0 8 C-0.66 8 -1.32 8 -2 8 C-1.125 1.125 -1.125 1.125 0 0 Z " fill="#E8EAE4" transform="translate(675,795)"/>
<path d="M0 0 C0.66 0.99 1.32 1.98 2 3 C1.34 3.66 0.68 4.32 0 5 C-0.66 5 -1.32 5 -2 5 C-3.80060998 6.55683115 -3.80060998 6.55683115 -5.625 8.5 C-6.25664063 9.1496875 -6.88828125 9.799375 -7.5390625 10.46875 C-8.02117188 10.9740625 -8.50328125 11.479375 -9 12 C-9 9 -9 9 -7.03125 6.73828125 C-5.77828125 5.53751953 -5.77828125 5.53751953 -4.5 4.3125 C-3.6646875 3.50425781 -2.829375 2.69601562 -1.96875 1.86328125 C-1.3190625 1.24839844 -0.669375 0.63351562 0 0 Z " fill="#072349" transform="translate(719,652)"/>
<path d="M0 0 C0.33 0 0.66 0 1 0 C1 3.3 1 6.6 1 10 C-1.64 9.67 -4.28 9.34 -7 9 C-7 8.67 -7 8.34 -7 8 C-5.02 8 -3.04 8 -1 8 C-1.020625 6.865625 -1.04125 5.73125 -1.0625 4.5625 C-1 1 -1 1 0 0 Z " fill="#0F2F52" transform="translate(602,823)"/>
<path d="M0 0 C0.66 0.33 1.32 0.66 2 1 C1.2169216 3.14898232 0.42328757 5.29412095 -0.375 7.4375 C-0.81585938 8.63246094 -1.25671875 9.82742188 -1.7109375 11.05859375 C-3 14 -3 14 -5 15 C-4.01 10.71 -3.02 6.42 -2 2 C-1.34 2 -0.68 2 0 2 C0 1.34 0 0.68 0 0 Z " fill="#132C50" transform="translate(452,323)"/>
<path d="M0 0 C2.91517292 1.07401108 4.77810176 1.77810176 7 4 C6.625 6.125 6.625 6.125 6 8 C5.01 8 4.02 8 3 8 C2.67 7.34 2.34 6.68 2 6 C2.66 6 3.32 6 4 6 C3.0022242 3.00667261 2.2477975 2.05233685 0 0 Z " fill="#133154" transform="translate(375,817)"/>
<path d="M0 0 C2.39105598 2.14926381 3.63278854 3.99036913 4.75 7 C5.01296875 7.680625 5.2759375 8.36125 5.546875 9.0625 C6 11 6 11 5 14 C4.67 12.68 4.34 11.36 4 10 C3.34 10 2.68 10 2 10 C1.33333333 6.66666667 0.66666667 3.33333333 0 0 Z " fill="#0E284E" transform="translate(603,624)"/>
<path d="M0 0 C0.33 0.66 0.66 1.32 1 2 C1.99 2 2.98 2 4 2 C4.625 4.875 4.625 4.875 5 8 C4.34 8.66 3.68 9.32 3 10 C0.96564469 6.27034861 0 4.33094958 0 0 Z " fill="#06274E" transform="translate(328,810)"/>
<path d="M0 0 C0.99 0.33 1.98 0.66 3 1 C2.34 1 1.68 1 1 1 C1 3.31 1 5.62 1 8 C0.01 8 -0.98 8 -2 8 C-1.125 1.125 -1.125 1.125 0 0 Z " fill="#DFE5E5" transform="translate(130,722)"/>
<path d="M0 0 C0 3.57575896 -1.08840607 5.05295935 -3 8 C-3.33 7.01 -3.66 6.02 -4 5 C-4.66 4.67 -5.32 4.34 -6 4 C-6 3.34 -6 2.68 -6 2 C-4.02 1.34 -2.04 0.68 0 0 Z " fill="#E2E7E4" transform="translate(764,627)"/>
<path d="M0 0 C2.475 0.99 2.475 0.99 5 2 C3.8125 3.5 3.8125 3.5 2 5 C-0.6875 5.1875 -0.6875 5.1875 -3 5 C-2.01 3.35 -1.02 1.7 0 0 Z " fill="#F5F4F2" transform="translate(478,470)"/>
<path d="M0 0 C0.66 0.33 1.32 0.66 2 1 C2 1.99 2 2.98 2 4 C2.99 4.33 3.98 4.66 5 5 C2 6 2 6 -2 6 C-1.34 4.02 -0.68 2.04 0 0 Z " fill="#E6E9E5" transform="translate(656,724)"/>
<path d="M0 0 C2.97 0 5.94 0 9 0 C9 0.33 9 0.66 9 1 C7.35 1 5.7 1 4 1 C4 1.99 4 2.98 4 4 C2.68 3.67 1.36 3.34 0 3 C0 2.01 0 1.02 0 0 Z " fill="#0E4568" transform="translate(783,623)"/>
<path d="M0 0 C0.66 0.33 1.32 0.66 2 1 C1.2575 1.8971875 1.2575 1.8971875 0.5 2.8125 C-1.28276418 4.97029994 -1.28276418 4.97029994 -1 8 C-1.99 8.495 -1.99 8.495 -3 9 C-3.75 6.75 -3.75 6.75 -4 4 C-2.0625 1.6875 -2.0625 1.6875 0 0 Z " fill="#082D53" transform="translate(592,448)"/>
<path d="M0 0 C1.74627478 2.61941217 2.38722388 4.03824877 3 7 C2.01 7.33 1.02 7.66 0 8 C-1.09658936 4.71023192 -0.79953138 3.28696233 0 0 Z " fill="#0F3458" transform="translate(592,322)"/>
<path d="M0 0 C1.33332095 2.6666419 0.67102033 4.16680303 0 7 C-1.32 7.33 -2.64 7.66 -4 8 C-2.87548273 5.0280615 -1.77706209 2.66559313 0 0 Z " fill="#082950" transform="translate(743,789)"/>
<path d="M0 0 C0.66 0.33 1.32 0.66 2 1 C2 3.64 2 6.28 2 9 C1.01 8.67 0.02 8.34 -1 8 C-0.67 5.36 -0.34 2.72 0 0 Z " fill="#05274B" transform="translate(600,774)"/>
<path d="M0 0 C1.98 0 3.96 0 6 0 C6 0.66 6 1.32 6 2 C3.36 2.66 0.72 3.32 -2 4 C-2 3.34 -2 2.68 -2 2 C-1.34 2 -0.68 2 0 2 C0 1.34 0 0.68 0 0 Z " fill="#E4E9E8" transform="translate(854,720)"/>
<path d="M0 0 C2.475 0.495 2.475 0.495 5 1 C4.2884375 1.5878125 4.2884375 1.5878125 3.5625 2.1875 C1.64820367 4.40808374 1.38733012 6.13375709 1 9 C0.67 9 0.34 9 0 9 C0 6.03 0 3.06 0 0 Z " fill="#17476B" transform="translate(555,541)"/>
</svg>
